<?xml version="1.0" encoding="UTF-8" standalone="no"?>
<svg
   xmlns:dc="http://purl.org/dc/elements/1.1/"
   xmlns:cc="http://creativecommons.org/ns#"
   xmlns:rdf="http://www.w3.org/1999/02/22-rdf-syntax-ns#"
   xmlns:svg="http://www.w3.org/2000/svg"
   xmlns="http://www.w3.org/2000/svg"
   viewBox="0 0 820.0105 1005.128"
   height="1005.128"
   width="820.0105"
   id="svg5310"
   version="1.1">
  <metadata
     id="metadata5316">
    <rdf:RDF>
      <cc:Work
         rdf:about="">
        <dc:format>image/svg+xml</dc:format>
        <dc:type
           rdf:resource="http://purl.org/dc/dcmitype/StillImage" />
        <dc:title></dc:title>
      </cc:Work>
    </rdf:RDF>
  </metadata>
  <defs
     id="defs5314" />
  <g
     transform="translate(-229.67471,-106.11896)"
     id="g5881">
    <g
       id="g5931">
      <path
         style="fill:#f6d7a0;stroke-width:0.63999999"
         d="m 287.68,880.39066 c -5.66422,-1.78362 -10.364,-5.9408 -13.17677,-11.65536 L 272.96,865.6 l -0.16349,-229.82353 -0.1635,-229.82354 -6.2365,-0.38373 c -11.23088,-0.69104 -19.51632,-4.43263 -26.71778,-12.06538 -13.33869,-14.13754 -13.33869,-36.2301 0,-50.36764 7.18215,-7.61229 15.48987,-11.37448 26.63131,-12.06011 l 6.15002,-0.37846 0.38423,-7.42881 c 0.45156,-8.73079 1.54601,-13.24404 4.90543,-20.2288 4.60131,-9.56687 13.23809,-17.05009 24.62816,-21.33873 10.00203,-3.76603 15.59852,-4.65179 31.82961,-5.03771 l 14.5275,-0.34542 0.31701,1.52093 c 0.17436,0.83651 0.48064,9.58493 0.68062,19.44093 0.19999,9.856 0.54296,21.448 0.76216,25.76 l 0.39856,7.84 h 9.19334 c 5.05632,0 9.19332,-0.22205 9.19332,-0.49345 0,-0.27139 -3.888,-19.92134 -8.64,-43.66655 -4.752,-23.74521 -8.64,-43.2142 -8.64,-43.26442 0,-0.0502 3.816,-0.28355 8.48,-0.51851 4.664,-0.23496 10.208,-0.54798 12.32,-0.6956 2.112,-0.14763 7.296,-0.43195 11.52,-0.63184 4.224,-0.19988 9.7967,-0.53634 12.38377,-0.7477 l 4.70376,-0.38427 -0.35582,-1.77914 -0.35584,-1.77915 6.85207,-0.39139 c 3.76863,-0.21526 8.5123,-0.5449 10.54149,-0.73253 l 3.68943,-0.34115 0.40655,2.03277 0.40656,2.03276 4.05136,-0.3252 c 2.22826,-0.17886 5.92907,-0.98808 8.22402,-1.79827 3.34701,-1.1816 4.17265,-1.73937 4.17265,-2.81889 0,-1.29367 3.21325,-2.68335 19.68,-8.51128 0.44,-0.15573 0.8,0.17968 0.8,0.74534 0,1.38766 0.42465,1.32644 6.18464,-0.89153 2.75428,-1.06058 6.21567,-1.92 7.73295,-1.92 2.57738,0 2.72309,-0.0944 2.36251,-1.53112 -0.36543,-1.456 -0.20122,-1.54924 3.34781,-1.90067 2.05265,-0.20325 6.90009,-0.45025 10.77209,-0.54888 7.00481,-0.17843 7.04109,-0.17164 7.25733,1.3585 l 0.21734,1.53784 10.02266,-0.41571 c 5.51247,-0.22863 11.82267,-0.41666 14.02267,-0.41783 3.03832,-0.002 4,-0.22186 4,-0.91608 0,-0.63562 1.12067,-1.04617 3.68,-1.34815 2.024,-0.23882 6.56,-0.80337 10.08,-1.25455 3.52,-0.4512 6.58808,-0.63653 6.81795,-0.41185 0.22986,0.22467 1.46933,24.7445 2.75436,54.4885 1.28503,29.744 2.478,55.016 2.65105,56.16 l 0.31464,2.08 35.971,-0.006 35.971,-0.006 1.24496,-3.991 c 1.66236,-5.32906 7.16561,-16.05605 10.98861,-21.41907 15.53213,-21.789 42.47446,-36.14864 66.15113,-35.25705 6.42861,0.24209 7.45357,0.49422 22.50932,5.5371 17.26784,5.78382 19.1648,6.87751 21.73171,12.52924 2.15961,4.75514 1.67507,7.65989 -4.22573,25.33172 -2.992,8.96048 -5.44,16.51412 -5.44,16.78589 0,0.27177 6.30227,0.49411 14.00499,0.49411 h 14.00499 l 2.70234,-9.76 c 1.48627,-5.368 9.00109,-31.92329 16.69958,-59.01176 8.49524,-29.89188 13.74605,-49.40703 13.35815,-49.64676 -0.35155,-0.21725 -6.64896,-2.06712 -13.99437,-4.11083 l -13.3552,-3.71584 -10.45862,-10.47306 -10.45863,-10.47307 0.18739,-6.88434 c 0.15226,-5.59371 -0.0544,-7.57689 -1.10201,-10.57849 C 743.66656,153.15562 730.64582,147.2 706.63251,147.2 c -5.51437,0 -12.46656,0.30073 -15.44928,0.66829 -13.10137,1.61446 -30.02925,5.85839 -43.48774,10.90267 -3.91168,1.46612 -7.24243,2.53544 -7.4016,2.37627 -0.56517,-0.56518 5.34541,-11.77233 8.36825,-15.86723 13.45959,-18.23288 37.35629,-29.46582 71.01786,-33.38282 8.51917,-0.99132 36.17421,-1.01164 43.91238,-0.0323 5.44768,0.68948 5.67668,0.66063 19.52,-2.45977 7.7042,-1.7366 14.43962,-3.15893 14.96762,-3.16073 0.528,-0.002 24.86259,6.76613 54.07686,15.03986 l 53.11687,15.04315 10.64249,10.62873 10.64256,10.62873 -1.11308,3.67633 -1.11309,3.67634 15.82944,4.4486 15.8295,4.44859 0.80135,-2.27737 c 1.19801,-3.40488 3.54675,-6.20739 6.8,-8.11393 4.55929,-2.67192 8.01484,-2.41713 22.2544,1.64091 13.50726,3.84937 16.2006,5.32726 18.7265,10.27564 2.6105,5.11406 2.304,6.83321 -7.16401,40.18163 -9.34521,32.9158 -9.82669,34.12224 -14.77472,37.02196 -4.92659,2.8872 -7.90976,2.70681 -21.97945,-1.32912 -7.05914,-2.02494 -13.49658,-4.25852 -14.84461,-5.15062 -1.30912,-0.86636 -3.18816,-2.94963 -4.17562,-4.62952 -1.57779,-2.68413 -1.79033,-3.6749 -1.75379,-8.17433 l 0.0416,-5.12 -15.34899,-4.34391 c -10.62765,-3.0077 -15.48531,-4.12341 -15.79207,-3.62708 -0.24364,0.39426 -0.82054,2.29044 -1.28192,4.21374 -0.46137,1.92329 -1.02105,3.6095 -1.24377,3.74712 -0.22266,0.13761 -6.85562,1.71368 -14.73991,3.50238 l -14.3351,3.25218 -13.7383,-3.87261 c -7.55604,-2.12993 -13.94573,-3.64742 -14.19924,-3.37221 -0.32736,0.35539 -25.32051,87.59779 -29.24966,102.10039 -0.2873,1.06027 2.60166,1.12 54.1712,1.12 h 54.47462 l 0.055,-2.08 c 0.77447,-29.21586 1.6505,-51.67989 2.03015,-52.05916 0.94483,-0.94384 23.56633,-0.46124 30.23469,0.64501 29.27974,4.85742 44.3534,20.03227 45.5767,45.88259 l 0.3515,7.42845 6.1559,0.37882 c 11.1476,0.686 19.4537,4.44678 26.6372,12.06047 13.3387,14.13754 13.3387,36.23011 0,50.36764 -7.2022,7.63358 -15.4868,11.37434 -26.7213,12.06559 l -6.24,0.38395 v 228.99931 228.99933 l -1.3144,3.51303 c -1.7375,4.64409 -6.14621,9.45868 -10.71594,11.70272 l -3.64966,1.79225 -350.4,0.1184 c -280.2231,0.0947 -350.91271,-0.0429 -352.96,-0.68774 z M 464.6424,556.96 c 10e-4,-0.264 0.86532,-9.95986 1.92,-21.54636 1.05468,-11.58648 1.91478,-22.53048 1.91135,-24.32 -0.008,-4.08679 -2.23763,-9.05251 -5.18229,-11.54102 -4.08476,-3.45197 -6.71844,-4.18845 -14.74094,-4.1221 -12.55504,0.10382 -18.25546,-2.4573 -29.03052,-13.04305 l -7.04,-6.91631 -5.06176,0.66442 c -9.84332,1.29206 -13.07495,0.61895 -15.3263,-3.19228 -0.66162,-1.12004 -1.61856,-6.39949 -2.62338,-14.47325 -2.62819,-21.11753 -4.74635,-38.56317 -5.56445,-45.83005 l -0.77455,-6.88 h -15.22131 -15.22131 l 0.32843,7.2 c 0.33377,7.31713 4.10463,137.92028 4.10463,142.16329 V 557.44 h 53.76 c 29.568,0 53.76108,-0.216 53.7624,-0.48 z m 94.96472,-0.64 c 0.18335,-0.616 9.7211,-34.24 21.19499,-74.72 11.47389,-40.48 21.01069,-74.104 21.19289,-74.72 0.31098,-1.05146 -1.0227,-1.12 -21.79187,-1.12 -20.97785,0 -22.12313,0.0604 -22.12313,1.16634 0,0.64149 1.15873,10.75706 2.57494,22.47904 2.51971,20.85546 2.5506,21.36232 1.44,23.62522 -1.84183,3.75284 -4.28005,4.9197 -12.12445,5.80239 -3.8032,0.42795 -6.95577,0.8296 -7.00571,0.89255 -0.0499,0.063 -0.87747,1.69846 -1.83897,3.63446 -2.92445,5.88846 -8.49842,13.84148 -11.63762,16.60471 -3.94775,3.47495 -9.69442,6.22179 -15.56819,7.44142 -6.54548,1.3591 -9.48189,2.78247 -12.38219,6.00201 -6.22589,6.91121 -6.03846,9.27654 2.7499,34.70435 3.85363,11.14988 7.62542,22.30988 8.38177,24.8 l 1.37519,4.52751 h 22.61454 c 20.98398,0 22.63857,-0.0808 22.94791,-1.12 z m 162.07282,-74.4 c 11.74713,-41.36 21.35884,-75.416 21.35923,-75.68 4.5e-4,-0.264 -7.89101,-0.48 -17.53658,-0.48 h -17.53734 l -0.63296,1.76 c -0.34816,0.968 -13.33632,34.96536 -28.86266,75.54968 C 662.94336,523.654 650.24,556.99334 650.24,557.15711 c 0,0.16376 11.26835,0.2224 25.0407,0.13032 L 700.32141,557.12 Z M 922.24,555.44329 c 0,-4.2105 3.79341,-135.02577 4.1225,-142.16329 l 0.34668,-7.52 h -64.19206 -64.19206 l -21.29965,74.97659 c -11.71488,41.23713 -21.44883,75.36513 -21.63104,75.84 -0.27699,0.72183 13.37536,0.86341 83.25715,0.86341 H 922.24 Z"
         id="path5909" />
      <path
         style="fill:#fdcb6a;stroke-width:0.63999999"
         d="m 287.91691,880.27968 c -4.34975,-1.34112 -8.91208,-4.6535 -11.27095,-8.1831 -4.35093,-6.51034 -4.00596,13.97395 -4.00596,-237.87691 v -228.268 l -5.73213,-0.40688 C 254.82714,404.68728 247.979,401.75945 240.63535,394.31234 233.20341,386.77571 229.76,378.54587 229.76,368.32 c 0,-10.27564 3.44881,-18.49529 10.90815,-25.99772 7.41375,-7.45657 14.21088,-10.37324 26.14902,-11.22064 l 5.64142,-0.40044 0.36696,-7.1106 c 1.00372,-19.44919 9.32938,-32.36314 25.92273,-40.20881 10.25502,-4.84879 21.91089,-6.89705 39.26511,-6.89999 l 10.65339,-0.002 0.37411,4.96 c 0.20576,2.728 0.53071,12.736 0.72211,22.24 0.1914,9.504 0.515,19.512 0.71911,22.24 l 0.37111,4.96 h 9.4393 9.43929 l -8.5459,-42.70839 C 356.48566,264.682 352.64,244.99424 352.64,244.42104 c 0,-0.89912 1.33973,-1.0994 9.76,-1.45904 5.368,-0.22927 16.312,-0.75461 24.32,-1.16741 l 14.56,-0.75055 v -2.02423 -2.02424 l 7.2,-0.41487 c 12.66208,-0.72961 13.06627,-0.68937 13.47245,1.34156 l 0.35245,1.76226 4.68755,-0.38471 c 6.30634,-0.51757 11.58336,-2.45345 12.04751,-4.41966 0.29326,-1.24222 1.83056,-2.0483 9.2957,-4.87417 9.59049,-3.6304 11.18434,-3.98467 11.18434,-2.48598 0,1.1996 -0.5125,1.29181 5.33536,-0.96 2.74239,-1.056 5.95227,-1.92 7.13306,-1.92 3.0949,0 4.17158,-0.57889 4.17158,-2.24291 0,-1.43161 0.19873,-1.47648 8.48,-1.91483 10.9633,-0.58031 12.26019,-0.42479 12.53306,1.50298 0.21119,1.492 0.26746,1.50195 6.4,1.13143 3.40282,-0.2056 9.71494,-0.55478 14.02694,-0.77597 5.50776,-0.28251 7.84,-0.63365 7.84,-1.18035 0,-0.84937 19.58585,-3.38783 20.33776,-2.63593 0.36985,0.36985 5.14237,99.58293 5.22771,108.67558 l 0.0345,3.68 h 36.36312 36.36313 l 1.12075,-3.55546 c 3.00325,-9.52741 10.98876,-22.59874 19.25508,-31.51836 11.21933,-12.10594 29.96262,-22.04871 46.76531,-24.80765 10.94151,-1.79654 14.91315,-1.21689 33.24615,4.85224 17.03116,5.63815 18.99507,6.70405 21.53881,11.6903 2.74573,5.38197 2.44595,7.42688 -3.84313,26.21893 l -5.72954,17.12 h 14.31309 14.31302 l 1.23379,-4.32 c 17.90055,-62.67729 32.0672,-113.71295 31.66157,-114.0614 -0.28665,-0.2462 -6.56915,-2.12059 -13.96115,-4.16531 l -13.44,-3.71768 -10.64416,-10.62781 -10.6441,-10.6278 0.43744,-4.10196 c 1.69024,-15.84914 -6.08211,-26.24874 -22.51961,-30.13185 -20.14112,-4.75802 -46.61421,-1.83192 -75.41043,8.33521 -5.07053,1.79025 -9.73581,3.41872 -10.36736,3.61882 -1.01492,0.3216 -0.95527,-0.0728 0.51436,-3.3982 7.57677,-17.14503 21.85613,-29.78346 42.59008,-37.69583 20.49818,-7.82242 52.55252,-11.01591 79.64378,-7.9347 4.87872,0.55487 5.8137,0.4288 19.84,-2.67507 l 14.72,-3.25737 53.44,15.13337 53.44,15.13337 10.54048,10.50996 10.54048,10.50996 -1.01229,3.778 -1.01229,3.77801 15.75181,4.45356 15.75181,4.45357 1.81267,-3.76857 c 3.02458,-6.2881 9.60384,-9.66341 15.9689,-8.19241 9.24051,2.13552 23.45421,6.59625 25.96544,8.14884 3.71872,2.29907 6.49302,7.27144 6.49302,11.63726 0,2.64441 -15.14678,58.03263 -17.43235,63.74603 -1.35117,3.37764 -5.43155,7.19864 -8.92723,8.35971 -4.10573,1.36369 -5.53018,1.15472 -20.06464,-2.94363 -11.19495,-3.15668 -12.04595,-3.50747 -15.04026,-6.19957 -4.01165,-3.60684 -5.65453,-8.27127 -4.64729,-13.19458 0.44883,-2.1939 0.42918,-3.1677 -0.0673,-3.33665 -1.91353,-0.65126 -30.18176,-8.60528 -30.58272,-8.60528 -0.25523,0 -1.04877,1.96323 -1.76333,4.36273 l -1.29926,4.36272 -14.56787,3.27925 -14.56781,3.27924 -13.91392,-3.9147 c -7.65267,-2.15309 -14.01523,-3.79197 -14.13901,-3.64197 -0.22464,0.27216 -28.14253,98.53526 -28.94349,101.87273 l -0.42233,1.76 h 54.40141 54.40147 l 0.37689,-5.6 c 0.2073,-3.08 0.5337,-13.376 0.72532,-22.88 0.19161,-9.504 0.51712,-19.25694 0.72332,-21.6732 l 0.37498,-4.39319 14.80768,0.32349 c 12.92595,0.28239 15.67603,0.53008 21.6409,1.94911 17.09753,4.06748 28.29356,12.01246 34.45474,24.44999 3.1233,6.30477 5.0915,14.96185 5.1036,22.44797 l 0.01,5.18416 5.7321,0.40688 c 12.0808,0.85751 18.9289,3.78534 26.2726,11.23245 7.432,7.53663 10.8754,15.76647 10.8754,25.99234 0,10.22587 -3.4434,18.45571 -10.8753,25.99234 -7.343,7.44638 -14.1921,10.37496 -26.2691,11.2322 l -5.7286,0.40663 -0.1635,229.82442 L 1006.4,865.6 l -1.4762,2.9671 c -2.2622,4.54682 -5.38543,7.78528 -9.83516,10.19783 L 991.04,880.96 640.96,881.07661 c -301.69602,0.10054 -350.48952,-0.01 -353.04309,-0.79693 z M 465.28479,554.72 c 0.003,-1.496 0.8666,-11.93377 1.91991,-23.19504 1.05332,-11.26127 1.73642,-21.48527 1.51799,-22.72 -0.59077,-3.3396 -3.36347,-8.11261 -5.78617,-9.96049 -4.01513,-3.0625 -6.36664,-3.64311 -15.25652,-3.76698 -6.90246,-0.0962 -8.93563,-0.35817 -11.93332,-1.53775 -5.85784,-2.30501 -11.37877,-6.25581 -17.3199,-12.39418 l -5.57321,-5.75825 -5.24855,0.70635 c -8.50092,1.14404 -11.04498,0.96032 -13.33034,-0.96269 -1.09094,-0.91797 -2.25323,-2.17297 -2.58286,-2.78888 -0.6074,-1.13493 -2.66253,-16.5832 -6.49496,-48.82209 l -2.11124,-17.76 h -15.27638 -15.27639 l 0.39845,9.12 c 0.21914,5.016 1.09786,34.32 1.95271,65.12 0.85484,30.8 1.74064,60.824 1.96843,66.72 l 0.41416,10.72 h 54.0067 54.0067 l 0.004,-2.72 z m 115.59292,-72.48 c 11.71897,-41.184 21.31961,-75.24 21.33475,-75.68 0.0215,-0.62508 -4.80044,-0.8 -22.05246,-0.8 h -22.08 l 0.0198,1.76 c 0.0109,0.968 0.30357,3.92 0.65047,6.56 0.34689,2.64 1.49046,11.97668 2.54127,20.74817 1.85025,15.44478 1.87517,16.02025 0.78952,18.23155 -1.90741,3.88515 -4.19193,4.8922 -13.25426,5.84272 -4.43002,0.46466 -7.71498,1.05471 -7.29993,1.31123 1.21728,0.75232 -5.55941,12.28006 -10.10536,17.19011 -4.94239,5.33824 -9.74288,7.97785 -17.63241,9.69541 -6.75091,1.46969 -10.40874,3.34819 -13.28033,6.82018 -2.10957,2.55064 -3.86874,7.41583 -3.86874,10.69945 0,1.09257 3.05212,10.9043 6.78247,21.80384 3.73036,10.89954 7.50494,22.12134 8.38795,24.93734 0.883,2.816 1.73812,5.33962 1.90026,5.60804 0.16214,0.26842 10.54693,0.41242 23.07731,0.32 L 559.5705,557.12 Z m 140.35749,2.077 c 11.41536,-40.21435 21.12294,-74.34546 21.57235,-75.84692 l 0.81722,-2.72992 -17.97984,0.16992 -17.97978,0.16992 -28.94086,75.68 -28.94087,75.68 25.34829,-0.003 25.34829,-0.003 z M 922.24,556.71668 c 0,-3.28275 3.86138,-134.80134 4.16435,-141.83668 l 0.39271,-9.12 h -64.30893 -64.30887 l -0.65984,2.08 C 796.52749,410.9669 755.2,556.74596 755.2,557.1181 c 0,0.17704 37.584,0.3219 83.52,0.3219 61.66739,0 83.52,-0.18925 83.52,-0.72332 z M 415.82667,475.13333 c -0.21267,-0.21266 -0.76467,-0.2354 -1.22667,-0.0505 -0.51055,0.2043 -0.3589,0.35595 0.38667,0.38666 0.67466,0.0278 1.05266,-0.12348 0.84,-0.33614 z m 5.12,-0.64 c -0.21267,-0.21266 -0.76467,-0.2354 -1.22667,-0.0505 -0.51055,0.2043 -0.3589,0.35595 0.38667,0.38666 0.67466,0.0278 1.05266,-0.12348 0.84,-0.33614 z M 426.4,473.81614 c -0.44,-0.17754 -1.16,-0.17754 -1.6,0 -0.44,0.17754 -0.08,0.32281 0.8,0.32281 0.88,0 1.24,-0.14527 0.8,-0.32281 z m 5.12,-0.64 c -0.44,-0.17754 -1.16,-0.17754 -1.6,0 -0.44,0.17754 -0.08,0.32281 0.8,0.32281 0.88,0 1.24,-0.14527 0.8,-0.32281 z m 5.42667,-0.60281 c -0.21267,-0.21266 -0.76467,-0.2354 -1.22667,-0.0505 -0.51055,0.2043 -0.3589,0.35595 0.38667,0.38666 0.67466,0.0278 1.05266,-0.12348 0.84,-0.33614 z m 5.12,-0.64 c -0.21267,-0.21266 -0.76467,-0.2354 -1.22667,-0.0505 -0.51055,0.2043 -0.3589,0.35595 0.38667,0.38666 0.67466,0.0278 1.05266,-0.12348 0.84,-0.33614 z m 5.45333,-0.67719 c -0.44,-0.17754 -1.16,-0.17754 -1.6,0 -0.44,0.17754 -0.08,0.32281 0.8,0.32281 0.88,0 1.24,-0.14527 0.8,-0.32281 z m 5.12,-0.64 c -0.44,-0.17754 -1.16,-0.17754 -1.6,0 -0.44,0.17754 -0.08,0.32281 0.8,0.32281 0.88,0 1.24,-0.14527 0.8,-0.32281 z m 5.42667,-0.60281 c -0.21267,-0.21266 -0.76467,-0.2354 -1.22667,-0.0505 -0.51055,0.2043 -0.3589,0.35595 0.38667,0.38666 0.67466,0.0278 1.05266,-0.12348 0.84,-0.33614 z m 5.12,-0.64 c -0.21267,-0.21266 -0.76467,-0.2354 -1.22667,-0.0505 -0.51055,0.2043 -0.3589,0.35595 0.38667,0.38666 0.67466,0.0278 1.05266,-0.12348 0.84,-0.33614 z m 5.45333,-0.67719 c -0.44,-0.17754 -1.16,-0.17754 -1.6,0 -0.44,0.17754 -0.08,0.32281 0.8,0.32281 0.88,0 1.24,-0.14527 0.8,-0.32281 z m 5.12,-0.64 c -0.44,-0.17754 -1.16,-0.17754 -1.6,0 -0.44,0.17754 -0.08,0.32281 0.8,0.32281 0.88,0 1.24,-0.14527 0.8,-0.32281 z m 5.42667,-0.60281 c -0.21267,-0.21266 -0.76467,-0.2354 -1.22667,-0.0505 -0.51055,0.2043 -0.3589,0.35595 0.38667,0.38666 0.67466,0.0278 1.05266,-0.12348 0.84,-0.33614 z m 5.12,-0.64 c -0.21267,-0.21266 -0.76467,-0.2354 -1.22667,-0.0505 -0.51055,0.2043 -0.3589,0.35595 0.38667,0.38666 0.67466,0.0278 1.05266,-0.12348 0.84,-0.33614 z m 5.45333,-0.67719 c -0.44,-0.17754 -1.16,-0.17754 -1.6,0 -0.44,0.17754 -0.08,0.32281 0.8,0.32281 0.88,0 1.24,-0.14527 0.8,-0.32281 z m 5.12,-0.64 c -0.44,-0.17754 -1.16,-0.17754 -1.6,0 -0.44,0.17754 -0.08,0.32281 0.8,0.32281 0.88,0 1.24,-0.14527 0.8,-0.32281 z m 5.42667,-0.60281 c -0.21267,-0.21266 -0.76467,-0.2354 -1.22667,-0.0505 -0.51055,0.2043 -0.3589,0.35595 0.38667,0.38666 0.67466,0.0278 1.05266,-0.12348 0.84,-0.33614 z m 5.12,-0.64 c -0.21267,-0.21266 -0.76467,-0.2354 -1.22667,-0.0505 -0.51055,0.2043 -0.3589,0.35595 0.38667,0.38666 0.67466,0.0278 1.05266,-0.12348 0.84,-0.33614 z m 5.45333,-0.67719 c -0.44,-0.17754 -1.16,-0.17754 -1.6,0 -0.44,0.17754 -0.08,0.32281 0.8,0.32281 0.88,0 1.24,-0.14527 0.8,-0.32281 z m 5.12,-0.64 c -0.44,-0.17754 -1.16,-0.17754 -1.6,0 -0.44,0.17754 -0.08,0.32281 0.8,0.32281 0.88,0 1.24,-0.14527 0.8,-0.32281 z m 5.42667,-0.60281 c -0.21267,-0.21266 -0.76467,-0.2354 -1.22667,-0.0505 -0.51055,0.2043 -0.3589,0.35595 0.38667,0.38666 0.67466,0.0278 1.05266,-0.12348 0.84,-0.33614 z m 5.12,-0.64 c -0.21267,-0.21266 -0.76467,-0.2354 -1.22667,-0.0505 -0.51055,0.2043 -0.3589,0.35595 0.38667,0.38666 0.67466,0.0278 1.05266,-0.12348 0.84,-0.33614 z M 532,461.01614 c -0.44,-0.17754 -1.16,-0.17754 -1.6,0 -0.44,0.17754 -0.08,0.32281 0.8,0.32281 0.88,0 1.24,-0.14527 0.8,-0.32281 z m 5.12,-0.64 c -0.44,-0.17754 -1.16,-0.17754 -1.6,0 -0.44,0.17754 -0.08,0.32281 0.8,0.32281 0.88,0 1.24,-0.14527 0.8,-0.32281 z"
         id="path5907" />
      <path
         style="fill:#a5a09d;stroke-width:0.63999999"
         d="m 287.91691,880.27968 c -4.34975,-1.34112 -8.91208,-4.6535 -11.27095,-8.1831 -4.35093,-6.51034 -4.00596,13.97395 -4.00596,-237.87691 v -228.268 l -5.73213,-0.40688 C 254.82714,404.68728 247.979,401.75945 240.63535,394.31234 233.20341,386.77571 229.76,378.54587 229.76,368.32 c 0,-10.27564 3.44881,-18.49529 10.90815,-25.99772 7.41375,-7.45657 14.21088,-10.37324 26.14902,-11.22064 l 5.64142,-0.40044 0.36696,-7.1106 c 1.00372,-19.44919 9.32938,-32.36314 25.92273,-40.20881 10.25502,-4.84879 21.91089,-6.89705 39.26511,-6.89999 l 10.65339,-0.002 0.37411,4.96 c 0.20576,2.728 0.53071,12.736 0.72211,22.24 0.1914,9.504 0.515,19.512 0.71911,22.24 l 0.37111,4.96 h 9.57652 c 8.81791,0 9.55071,-0.0887 9.2508,-1.12 -0.97532,-3.35366 -17.08114,-85.45273 -16.81578,-85.71809 0.40846,-0.40847 19.64787,-1.66261 20.00634,-1.30415 0.14924,0.14925 6.45218,31.20231 14.00653,69.0068 7.55434,37.80449 13.87729,69.32969 14.05098,70.05599 0.31304,1.30896 0.38755,1.31245 8.4936,0.39867 4.49778,-0.50702 8.37635,-1.10126 8.61903,-1.32054 0.24268,-0.21916 -3.27378,-30.92656 -7.81436,-68.23856 -10.35455,-85.08804 -9.39097,-75.01269 -7.21344,-75.42451 0.98261,-0.18583 5.56194,-0.52319 10.17629,-0.7497 l 8.38972,-0.41183 0.40817,2.55257 c 0.2245,1.40391 4.14176,33.2884 8.70502,70.85442 4.56326,37.56603 8.43671,68.44173 8.60765,68.61268 0.39863,0.39863 15.42153,-1.16144 16.2773,-1.69034 0.41555,-0.25682 -2.41938,-25.59697 -7.98146,-71.34256 -4.74426,-39.01935 -8.49036,-71.07983 -8.32467,-71.24552 0.30165,-0.30165 15.52723,-6.07144 18.08921,-6.85497 1.05777,-0.3235 1.44929,-0.0916 1.75888,1.04181 0.7073,2.5896 17.73853,143.49383 17.50453,144.82007 -0.22482,1.27423 -0.17342,1.27549 8.3563,0.20521 4.72039,-0.5923 8.6994,-1.19378 8.84225,-1.33662 0.14284,-0.14285 -3.77281,-33.40881 -8.70145,-73.92435 -4.92865,-40.51554 -8.96118,-74.40302 -8.96118,-75.3055 0,-1.58577 0.1343,-1.64097 4,-1.64417 2.2,-0.002 6.77604,-0.18716 10.16897,-0.41186 l 6.16898,-0.40855 0.47093,2.14416 c 0.25902,1.17928 4.41785,34.62749 9.24185,74.32935 4.82401,39.70186 8.93,72.34427 9.12443,72.5387 0.35706,0.35707 15.94994,-1.50026 16.40357,-1.95389 0.13464,-0.13463 -1.23196,-32.99203 -3.03688,-73.01645 -1.80492,-40.02441 -3.12495,-72.92839 -2.93338,-73.11995 0.44213,-0.44214 19.61281,-2.77026 19.95918,-2.42388 0.19478,0.19477 5.25991,106.93835 5.30345,111.76568 0.008,0.84399 4.40733,0.93942 36.40944,0.78972 l 36.40078,-0.1703 1.75467,-4.9497 c 6.91213,-19.49832 22.74756,-37.5536 40.97796,-46.72239 11.93011,-6.00012 22.36346,-8.70229 33.58605,-8.69856 l 8,0.003 15.68122,5.2236 c 17.02483,5.67118 19.33113,6.92131 21.89267,11.86689 2.62643,5.07077 2.03315,8.8467 -4.22035,26.8599 C 738.48109,323.1767 736,330.45411 736,330.61373 c 0,0.15961 6.54163,0.2128 14.53696,0.11819 l 14.53696,-0.17201 1.12685,-4.16 c 0.61971,-2.288 8.0551,-28.61295 16.52307,-58.4999 8.4679,-29.88694 15.30259,-54.62074 15.18822,-54.964 -0.11443,-0.34325 -6.47763,-2.40554 -14.14041,-4.58285 l -13.93235,-3.95876 -10.43834,-10.51724 -10.43834,-10.51725 0.432,-4.10196 c 1.67124,-15.86832 -6.08889,-26.24907 -22.52505,-30.13185 -20.14112,-4.75802 -46.61421,-1.83192 -75.41043,8.33521 -5.07053,1.79025 -9.73581,3.41872 -10.36736,3.61882 -1.01492,0.3216 -0.95527,-0.0728 0.51436,-3.3982 7.57677,-17.14503 21.85613,-29.78346 42.59008,-37.69583 20.49818,-7.82242 52.55252,-11.0159 79.64378,-7.9347 4.87872,0.55487 5.8137,0.4288 19.84,-2.67507 l 14.72,-3.25737 53.44,15.13337 53.44,15.13337 10.54048,10.50996 10.54048,10.50996 -1.01229,3.778 -1.01229,3.77801 15.75181,4.45356 15.75181,4.45357 1.81267,-3.76857 c 3.02458,-6.2881 9.60384,-9.66341 15.9689,-8.19241 9.24051,2.13552 23.45421,6.59625 25.96544,8.14884 3.71869,2.29907 6.49299,7.27144 6.49299,11.63726 0,2.64441 -15.14675,58.03263 -17.43232,63.74603 -1.35117,3.37764 -5.43155,7.19864 -8.92723,8.35971 -4.10573,1.3637 -5.53018,1.15472 -20.06464,-2.94363 -11.19495,-3.15668 -12.04595,-3.50747 -15.04026,-6.19957 -4.01165,-3.60684 -5.65453,-8.27127 -4.64729,-13.19458 0.44883,-2.1939 0.42918,-3.1677 -0.0673,-3.33665 -1.91353,-0.65117 -30.18176,-8.60519 -30.58272,-8.60519 -0.25523,0 -1.04877,1.96323 -1.76333,4.36273 l -1.29926,4.36272 -14.56787,3.27925 -14.56781,3.27924 -13.91392,-3.9147 c -7.65267,-2.15309 -14.03174,-3.79197 -14.17568,-3.64197 -0.14394,0.15 -6.86893,23.52873 -14.94445,51.95273 l -14.68269,51.68 h 54.55047 54.5504 l 0.37689,-5.6 c 0.2073,-3.08 0.5337,-13.376 0.72532,-22.88 0.19161,-9.504 0.51712,-19.25694 0.72332,-21.6732 l 0.37498,-4.39319 14.80768,0.32349 c 12.92595,0.28239 15.67603,0.53008 21.6409,1.94911 17.09753,4.06748 28.29356,12.01246 34.45481,24.44999 3.1233,6.30477 5.0915,14.96185 5.1036,22.44797 l 0.01,5.18416 5.7321,0.40688 c 12.0808,0.85751 18.9289,3.78534 26.2726,11.23245 7.432,7.53663 10.8754,15.76647 10.8754,25.99234 0,10.22587 -3.4434,18.45571 -10.8753,25.99234 -7.343,7.44638 -14.1921,10.37496 -26.2691,11.2322 l -5.7286,0.40663 -0.1635,229.82442 L 1006.4,865.6 l -1.4762,2.9671 c -2.2622,4.54682 -5.38543,7.78528 -9.83516,10.19783 L 991.04,880.96 640.96,881.07661 c -301.69602,0.10054 -350.48952,-0.01 -353.04309,-0.79693 z m 293.2542,-398.5221 21.4911,-75.67758 -22.06937,-0.1684 c -12.13815,-0.0926 -22.21056,-0.0272 -22.38313,0.14535 -0.32737,0.32738 -0.0883,2.56799 3.0701,28.77118 1.86204,15.44825 1.88715,16.0197 0.80124,18.23155 -1.81692,3.70081 -4.18936,4.82536 -12.06881,5.72063 -14.54242,1.65233 -128.99897,15.53088 -138.11115,16.74681 -12.98938,1.73331 -15.15349,1.68468 -17.62641,-0.39615 -1.09094,-0.91797 -2.25323,-2.17297 -2.58286,-2.78888 -0.6074,-1.13493 -2.66253,-16.5832 -6.49496,-48.82209 l -2.11124,-17.76 h -15.27638 -15.27639 l 0.39845,9.12 c 0.21914,5.016 1.09786,34.32 1.95271,65.12 0.85484,30.8 1.74064,60.824 1.96843,66.72 l 0.41416,10.72 101.2067,-0.003 101.2067,-0.003 21.49111,-75.67759 z M 700.8,557.12844 c 0,-0.28825 41.82106,-147.74796 42.61197,-150.24844 0.33177,-1.04884 -0.79706,-1.11916 -17.76883,-1.10681 l -18.12314,0.0132 -28.12736,73.74681 c -15.47002,40.56075 -28.50586,74.68281 -28.96858,75.82681 l -0.84121,2.08 h 25.60857 C 689.27616,557.44 700.8,557.2998 700.8,557.12844 Z m 221.44,-0.41176 c 0,-3.28397 3.86144,-134.80244 4.16448,-141.83975 l 0.39283,-9.12306 -64.47552,0.16306 -64.47558,0.16307 -21.29779,74.88 c -11.71373,41.184 -21.30912,75.24 -21.32308,75.68 -0.0205,0.63604 17.09184,0.8 83.49466,0.8 61.66739,0 83.52,-0.18925 83.52,-0.72332 z"
         id="path5905" />
      <path
         style="fill:#fbba2a;stroke-width:0.63999999"
         d="m 288.69208,880.2649 c -1.90736,-0.51367 -4.41483,-1.51911 -5.57215,-2.23437 -3.20349,-1.97991 -7.66339,-7.28058 -8.98103,-10.67424 -1.13626,-2.92647 -1.18485,-11.34131 -1.34327,-232.63629 l -0.16437,-229.6 h -5.50325 c -3.02679,0 -7.27282,-0.45653 -9.43563,-1.01452 -13.45154,-3.47037 -24.13481,-14.6036 -26.96956,-28.10548 -2.58959,-12.33414 1.07351,-24.81714 9.84787,-33.55931 7.27195,-7.24526 16.17872,-10.92069 26.46443,-10.92069 h 5.41036 l 0.41174,-6.72941 c 0.54707,-8.94119 1.93933,-14.91225 4.92231,-21.11059 5.3094,-11.03244 13.93968,-18.22148 27.19805,-22.65607 8.55367,-2.86099 16.34883,-3.965 30.78968,-4.36068 l 12.88726,-0.35311 0.42375,11.76493 c 0.23307,6.47071 0.6258,18.82093 0.87274,27.44493 l 0.44899,15.68 9.83366,0.17707 9.83367,0.17706 -0.34672,-1.45706 c -1.64082,-6.89548 -17.0985,-85.81251 -16.85585,-86.05516 0.40846,-0.40847 19.64787,-1.66261 20.00634,-1.30415 0.14924,0.14925 6.45218,31.2023 14.00653,69.0068 7.55434,37.80449 13.89485,69.39965 14.09001,70.21147 0.32158,1.3377 0.60775,1.4385 3.0536,1.07561 1.48432,-0.22022 5.86676,-0.7812 9.73876,-1.24662 3.872,-0.46541 6.54905,-0.87744 5.949,-0.91561 -0.71123,-0.0453 -1.21127,-0.79344 -1.43652,-2.14941 -0.3333,-2.00643 -15.98739,-131.1509 -16.71066,-137.86102 -0.34695,-3.21877 -0.31104,-3.3095 1.44118,-3.64119 0.98835,-0.1871 5.57635,-0.52571 10.19555,-0.75248 l 8.39855,-0.41232 0.71576,5.01351 c 0.39367,2.75742 4.32673,34.8059 8.74013,71.21884 4.4134,36.41294 8.0929,66.27389 8.17668,66.35766 0.0838,0.0838 3.17137,-0.2515 6.86133,-0.74506 3.68995,-0.49356 7.861,-0.91092 9.269,-0.92746 1.65778,-0.0195 2.25799,-0.22151 1.70307,-0.57324 -0.61495,-0.38978 -3.29056,-20.55853 -9.4749,-71.42197 -4.73988,-38.98335 -8.4824,-71.01437 -8.31671,-71.18006 0.30165,-0.30165 15.52723,-6.07144 18.08921,-6.85497 1.05777,-0.3235 1.44929,-0.0916 1.75888,1.04181 0.7598,2.7818 17.72941,143.54546 17.47637,144.96736 -0.20809,1.16932 -0.009,1.37817 1.09485,1.14783 0.74208,-0.15487 4.51723,-0.62042 8.38923,-1.03455 3.872,-0.41413 7.25757,-0.94662 7.52349,-1.18332 0.26592,-0.23669 -3.55008,-33.58798 -8.48,-74.11399 -4.92992,-40.52601 -8.96349,-74.42204 -8.96349,-75.32452 0,-1.58577 0.1343,-1.64097 4,-1.64417 2.2,-0.002 6.76381,-0.18635 10.1418,-0.41008 6.08591,-0.40306 6.14554,-0.39284 6.55312,1.12332 0.22623,0.84154 4.30073,33.64207 9.05446,72.89007 4.75372,39.248 8.78161,72.152 8.95087,73.12 0.23261,1.33025 0.0512,1.76 -0.74292,1.76 -0.57786,0 -0.93066,0.11446 -0.784,0.25437 0.38474,0.36698 17.77199,-1.86636 18.24977,-2.34413 0.22023,-0.22024 -1.07633,-33.14767 -2.88125,-73.17209 -1.80492,-40.02441 -3.12495,-72.92839 -2.93338,-73.11995 0.44213,-0.44214 19.61281,-2.77026 19.95918,-2.42388 0.19972,0.19972 5.26587,107.11504 5.30357,111.92568 0.008,1.05342 2.17037,1.12 36.3719,1.12 h 36.36313 l 1.14155,-3.68 c 6.04385,-19.48341 22.9729,-39.2511 41.66615,-48.65267 11.93011,-6.00012 22.36346,-8.70229 33.58605,-8.69856 l 8,0.003 15.68122,5.2236 c 17.02483,5.67118 19.33113,6.92131 21.89267,11.86689 2.62643,5.07077 2.03315,8.8467 -4.22035,26.8599 -3.03245,8.73498 -5.51354,16.15098 -5.51354,16.48 0,0.35317 5.88723,0.59819 14.37293,0.59819 h 14.37286 l 1.21325,-4.32 c 0.66726,-2.376 8.17498,-28.944 16.68371,-59.04 8.50874,-30.096 15.46298,-55.00995 15.45383,-55.36433 -0.009,-0.35439 -6.16711,-2.35357 -13.68442,-4.44263 l -13.6679,-3.79829 -10.86778,-10.40299 -10.86784,-10.403 0.63744,-3.95798 c 1.28576,-7.98384 -1.31104,-16.85219 -6.62157,-22.61342 -8.41849,-9.13305 -30.76345,-12.75744 -55.62752,-9.02291 -13.01971,1.95553 -28.71021,6.10616 -40.88429,10.81516 -3.05401,1.1813 -5.64454,1.90887 -5.7568,1.61684 -0.27174,-0.70695 4.59661,-10.31281 7.08922,-13.98799 3.04333,-4.48707 12.4375,-13.53606 17.52147,-16.87766 14.52627,-9.54776 33.1225,-15.44492 55.82125,-17.70181 8.63827,-0.85889 31.43859,-0.84453 40.97606,0.0258 l 7.5042,0.68479 14.26745,-3.23216 14.26752,-3.23217 53.1881,15.07661 53.18803,15.07661 9.3104,8.84519 c 13.70534,13.02056 12.57619,11.44722 11.33837,15.79834 -0.57242,2.01221 -0.94138,3.75793 -0.81991,3.87939 0.54804,0.54806 31.35162,9.06601 31.79488,8.79207 0.27424,-0.16948 0.69472,-1.2012 0.93447,-2.29273 0.5792,-2.63717 4.48192,-6.87811 7.66259,-8.3267 1.408,-0.64125 3.92461,-1.17224 5.59245,-1.17997 2.77069,-0.0129 20.0135,4.38561 26.55577,6.7741 4.86378,1.77568 9.13178,8.06134 9.13178,13.44875 0,1.01662 -3.9876,15.89454 -8.86125,33.06203 -9.66662,34.05036 -9.79392,34.36099 -15.35821,37.47027 -4.13235,2.3091 -7.76659,2.05065 -20.26054,-1.4408 -5.984,-1.67225 -12.032,-3.55379 -13.44,-4.18123 -6.17062,-2.74975 -9.36563,-9.74423 -7.75949,-16.98718 l 0.42579,-1.92 -15.68281,-4.43702 c -8.62554,-2.44036 -15.90343,-4.21754 -16.17312,-3.94929 -0.2697,0.26825 -1.06637,2.26219 -1.77037,4.43095 l -1.28,3.94322 -14.4,3.23612 -14.4,3.23612 -13.94016,-3.93633 c -7.66707,-2.16499 -14.0457,-3.76251 -14.17466,-3.55005 -0.12902,0.21245 -6.77568,23.41334 -14.7703,51.55751 -7.99469,28.14417 -14.67949,51.54579 -14.85517,52.00359 -0.26093,0.67994 9.74266,0.80241 54.63047,0.66877 L 928.96,331.2 l 0.73888,-24.32 c 0.4064,-13.376 0.7664,-25.72514 0.8,-27.44253 l 0.0608,-3.12255 14.24,0.34934 c 11.14483,0.27341 15.62163,0.64714 20.59642,1.71946 17.33977,3.7376 29.26502,11.66447 35.459,23.57012 3.4805,6.68987 5.1738,13.37379 5.6661,22.36616 l 0.3943,7.2 h 5.4097 c 10.285,0 19.192,3.6756 26.4638,10.92069 8.7743,8.74217 12.4374,21.22517 9.8479,33.55931 -2.8348,13.50188 -13.5181,24.63511 -26.9696,28.10548 -2.1628,0.55799 -6.4089,1.01452 -9.4356,1.01452 h -5.5033 l -0.1644,229.92 -0.1643,229.92 -1.6947,3.61472 c -2.1582,4.6032 -6.0874,8.53242 -10.6906,10.69056 l -3.61472,1.69472 -349.12,0.11936 c -304.23627,0.10406 -349.56584,0 -352.58792,-0.81446 z M 581.0614,482.07757 C 592.82117,440.63091 602.57198,406.36 602.72988,405.92 c 0.2262,-0.6304 -4.5457,-0.8 -22.50897,-0.8 h -22.79604 l 0.32117,2.4 c 2.70278,20.19704 4.18197,32.94324 4.62519,39.85521 0.33562,5.23415 0.27981,5.53839 -1.37744,7.50791 -1.9964,2.37259 -3.89975,2.96038 -12.83379,3.96331 -3.52,0.39515 -36.064,4.32334 -72.32,8.72929 -36.256,4.40596 -68.69811,8.32783 -72.09359,8.71526 -5.68951,0.64919 -6.34011,0.60716 -8.29735,-0.53593 -4.38956,-2.56363 -3.94546,-0.16496 -10.82614,-58.47505 -0.68535,-5.808 -1.24988,-10.92 -1.2545,-11.36 -0.007,-0.61754 -3.51158,-0.8 -15.36842,-0.8 h -15.36 l -0.0145,1.44 c -0.0476,4.7106 3.94983,142.42781 4.24477,146.24 l 0.35898,4.64 101.22539,-0.003 101.22539,-0.002 z M 700.8,557.12735 c 0,-0.17196 9.648,-34.28613 21.44,-75.80928 11.792,-41.52314 21.44,-75.65893 21.44,-75.85731 0,-0.19838 -8.08794,-0.28421 -17.97325,-0.19072 l -17.97325,0.16996 -28.74534,75.2 c -15.80986,41.36 -28.8809,75.56 -29.04666,76 -0.23795,0.63168 5.08058,0.8 25.2786,0.8 14.06892,0 25.5799,-0.14069 25.5799,-0.31265 z M 922.49146,551.52 c 0.28972,-4.6244 4.3006,-142.27428 4.24249,-145.6 -0.0109,-0.6346 -13.30848,-0.8 -64.31609,-0.8 h -64.30208 l -0.96288,3.36 C 787.2889,442.90184 755.2,556.3628 755.2,556.81836 c 0,0.39901 29.88941,0.62164 83.46029,0.62164 h 83.46029 z M 383.18667,385.53333 c -0.21267,-0.21266 -0.76467,-0.2354 -1.22667,-0.0505 -0.51055,0.2043 -0.3589,0.35595 0.38667,0.38666 0.67466,0.0278 1.05266,-0.12348 0.84,-0.33614 z m 5.12,-0.64 c -0.21267,-0.21266 -0.76467,-0.2354 -1.22667,-0.0505 -0.51055,0.2043 -0.3589,0.35595 0.38667,0.38666 0.67466,0.0278 1.05266,-0.12348 0.84,-0.33614 z m 5.45333,-0.67719 c -0.44,-0.17754 -1.16,-0.17754 -1.6,0 -0.44,0.17754 -0.08,0.32281 0.8,0.32281 0.88,0 1.24,-0.14527 0.8,-0.32281 z m 5.42667,-0.60281 c -0.21267,-0.21266 -0.76467,-0.2354 -1.22667,-0.0505 -0.51055,0.2043 -0.3589,0.35595 0.38667,0.38666 0.67466,0.0278 1.05266,-0.12348 0.84,-0.33614 z m 26.24,-3.2 c -0.21267,-0.21266 -0.76467,-0.2354 -1.22667,-0.0505 -0.51055,0.2043 -0.3589,0.35595 0.38667,0.38666 0.67466,0.0278 1.05266,-0.12348 0.84,-0.33614 z m 5.12,-0.64 c -0.21267,-0.21266 -0.76467,-0.2354 -1.22667,-0.0505 -0.51055,0.2043 -0.3589,0.35595 0.38667,0.38666 0.67466,0.0278 1.05266,-0.12348 0.84,-0.33614 z M 436,379.09614 c -0.44,-0.17754 -1.16,-0.17754 -1.6,0 -0.44,0.17754 -0.08,0.32281 0.8,0.32281 0.88,0 1.24,-0.14527 0.8,-0.32281 z m 26.54667,-3.16281 c -0.21267,-0.21266 -0.76467,-0.2354 -1.22667,-0.0505 -0.51055,0.2043 -0.3589,0.35595 0.38667,0.38666 0.67466,0.0278 1.05266,-0.12348 0.84,-0.33614 z m 5.12,-0.64 c -0.21267,-0.21266 -0.76467,-0.2354 -1.22667,-0.0505 -0.51055,0.2043 -0.3589,0.35595 0.38667,0.38666 0.67466,0.0278 1.05266,-0.12348 0.84,-0.33614 z m 5.12,-0.64 c -0.21267,-0.21266 -0.76467,-0.2354 -1.22667,-0.0505 -0.51055,0.2043 -0.3589,0.35595 0.38667,0.38666 0.67466,0.0278 1.05266,-0.12348 0.84,-0.33614 z M 499.36,371.41614 c -0.44,-0.17754 -1.16,-0.17754 -1.6,0 -0.44,0.17754 -0.08,0.32281 0.8,0.32281 0.88,0 1.24,-0.14527 0.8,-0.32281 z m 5.42667,-0.60281 c -0.21267,-0.21266 -0.76467,-0.2354 -1.22667,-0.0505 -0.51055,0.2043 -0.3589,0.35595 0.38667,0.38666 0.67466,0.0278 1.05266,-0.12348 0.84,-0.33614 z m 5.12,-0.64 c -0.21267,-0.21266 -0.76467,-0.2354 -1.22667,-0.0505 -0.51055,0.2043 -0.3589,0.35595 0.38667,0.38666 0.67466,0.0278 1.05266,-0.12348 0.84,-0.33614 z m 26.24,-3.2 c -0.21267,-0.21266 -0.76467,-0.2354 -1.22667,-0.0505 -0.51055,0.2043 -0.3589,0.35595 0.38667,0.38666 0.67466,0.0278 1.05266,-0.12348 0.84,-0.33614 z M 541.6,366.29614 c -0.44,-0.17754 -1.16,-0.17754 -1.6,0 -0.44,0.17754 -0.08,0.32281 0.8,0.32281 0.88,0 1.24,-0.14527 0.8,-0.32281 z m 5.42667,-0.60281 c -0.21267,-0.21266 -0.76467,-0.2354 -1.22667,-0.0505 -0.51055,0.2043 -0.3589,0.35595 0.38667,0.38666 0.67466,0.0278 1.05266,-0.12348 0.84,-0.33614 z m 5.12,-0.64 c -0.21267,-0.21266 -0.76467,-0.2354 -1.22667,-0.0505 -0.51055,0.2043 -0.3589,0.35595 0.38667,0.38666 0.67466,0.0278 1.05266,-0.12348 0.84,-0.33614 z"
         id="path5903" />
      <path
         style="fill:#f8a232;stroke-width:0.63999999"
         d="m 288.69208,880.2649 c -1.90736,-0.51367 -4.41483,-1.51911 -5.57215,-2.23437 -3.20349,-1.97991 -7.66339,-7.28058 -8.98103,-10.67424 -1.13626,-2.92647 -1.18485,-11.34131 -1.34327,-232.63629 l -0.16437,-229.6 h -5.50325 c -3.02679,0 -7.27282,-0.45653 -9.43563,-1.01452 -13.45154,-3.47037 -24.13481,-14.6036 -26.96956,-28.10548 -2.58959,-12.33414 1.07351,-24.81714 9.84787,-33.55931 7.27195,-7.24526 16.17872,-10.92069 26.46443,-10.92069 h 5.41036 l 0.41174,-6.72941 c 0.54707,-8.94119 1.93933,-14.91225 4.92231,-21.11059 5.3094,-11.03244 13.93968,-18.22148 27.19805,-22.65607 8.55367,-2.86099 16.34883,-3.965 30.78968,-4.36068 l 12.88726,-0.35311 0.42375,11.76493 c 0.23307,6.47071 0.6258,18.82093 0.87274,27.44493 l 0.44899,15.68 9.7221,0.17647 c 8.56212,0.15541 9.76027,0.30813 10.04205,1.28 0.17597,0.60694 2.50691,12.19153 5.17987,25.74353 2.67295,13.552 5.14189,25.31004 5.48653,26.12897 0.5191,1.23346 0.94379,1.4193 2.47496,1.083 1.01658,-0.22328 3.10072,-0.5453 4.63141,-0.71561 1.5307,-0.1703 3.93508,-0.44651 5.34308,-0.61379 1.408,-0.16729 3.568,-0.40612 4.8,-0.53076 2.80046,-0.2833 18.5305,-2.19945 22.4,-2.72864 1.584,-0.21663 3.6,-0.47806 4.48,-0.58095 0.88,-0.1029 3.04,-0.36491 4.8,-0.58227 1.76,-0.21735 4.208,-0.51042 5.44,-0.65127 4.00233,-0.45755 8.10458,-0.95676 16.12483,-1.96226 4.33134,-0.54303 8.88317,-1.09465 10.11517,-1.22583 1.9731,-0.21009 3.87416,-0.44321 10.24,-1.25566 0.88,-0.1123 3.328,-0.39857 5.44,-0.63614 2.112,-0.23758 7.296,-0.87255 11.52,-1.41106 4.224,-0.5385 8.832,-1.10514 10.24,-1.2592 3.83113,-0.4192 6.68509,-0.75225 10.24,-1.195 1.76,-0.2192 4.22694,-0.51497 5.4821,-0.65726 1.25515,-0.1423 6.00715,-0.72523 10.56,-1.29542 7.87225,-0.9859 10.0425,-1.25035 15.9579,-1.94457 1.408,-0.16523 3.856,-0.46176 5.44,-0.65895 1.584,-0.19718 3.57034,-0.33772 4.41407,-0.31231 l 1.53408,0.0462 -0.42328,-11.04062 c -0.23281,-6.07234 -0.6026,-13.70462 -0.82176,-16.96062 l -0.39848,-5.92 32.56768,-0.002 c 17.91223,-0.001 38.03969,-0.20521 44.72769,-0.45382 l 12.16,-0.45202 -7.57209,-0.77159 c -4.16465,-0.42438 -7.70397,-0.90349 -7.86517,-1.06468 -0.1612,-0.1612 0.39965,-2.13353 1.24634,-4.38296 7.06204,-18.76212 22.76558,-36.31416 40.44487,-45.20579 11.93011,-6.00012 22.36346,-8.70228 33.58605,-8.69856 l 8,0.003 15.68122,5.22361 c 17.02483,5.67117 19.33113,6.92131 21.89267,11.86688 2.62643,5.07077 2.03315,8.84671 -4.22035,26.8599 -3.03245,8.73499 -5.51354,16.15099 -5.51354,16.48 0,0.35317 5.88723,0.5982 14.37293,0.5982 h 14.37286 l 1.21325,-4.32 c 0.66726,-2.376 8.17498,-28.944 16.68371,-59.04 8.50874,-30.096 15.46298,-55.00996 15.45383,-55.36434 -0.009,-0.35438 -6.16711,-2.35357 -13.68442,-4.44262 l -13.6679,-3.79829 -10.86778,-10.403 -10.86784,-10.40299 0.63744,-3.95799 c 1.28576,-7.98383 -1.31104,-16.85219 -6.62157,-22.61342 -8.41849,-9.13305 -30.76345,-12.75744 -55.62752,-9.02291 -13.01971,1.95553 -28.71021,6.10616 -40.88429,10.81517 -3.05401,1.1813 -5.64454,1.90887 -5.7568,1.61684 -0.27174,-0.70695 4.59661,-10.31282 7.08922,-13.98799 3.04333,-4.48707 12.4375,-13.53606 17.52147,-16.87766 14.52627,-9.54776 33.1225,-15.44493 55.82125,-17.70182 8.63827,-0.85888 31.43859,-0.84453 40.97606,0.0258 l 7.5042,0.68479 14.26745,-3.23217 14.26752,-3.23216 53.1881,15.0766 53.18803,15.07661 9.3104,8.84519 c 13.70534,13.02056 12.57619,11.44722 11.33837,15.79835 -0.57242,2.0122 -0.94138,3.75793 -0.81991,3.87938 0.54804,0.54807 31.35162,9.06601 31.79488,8.79207 0.27424,-0.16947 0.69472,-1.2012 0.93447,-2.29272 0.5792,-2.63718 4.48192,-6.87812 7.66259,-8.32671 1.408,-0.64125 3.92461,-1.17224 5.59245,-1.17997 2.77069,-0.0129 20.0135,4.38562 26.55577,6.77411 4.86378,1.77567 9.13178,8.06133 9.13178,13.44874 0,1.01662 -3.9876,15.89454 -8.86125,33.06204 -9.66662,34.05035 -9.79392,34.36099 -15.35821,37.47026 -4.13235,2.3091 -7.76659,2.05066 -20.26054,-1.4408 -5.984,-1.67224 -12.032,-3.55379 -13.44,-4.18122 -6.17062,-2.74975 -9.36563,-9.74424 -7.75949,-16.98718 l 0.42579,-1.92 -15.68281,-4.43703 c -8.62554,-2.44036 -15.90343,-4.21754 -16.17312,-3.94929 -0.2697,0.26826 -1.06637,2.26219 -1.77037,4.43096 l -1.28,3.94321 -14.4,3.23612 -14.4,3.23612 -13.94016,-3.93633 c -7.66707,-2.16498 -14.0457,-3.76251 -14.17466,-3.55005 -0.12902,0.21246 -6.77568,23.41334 -14.7703,51.55751 -7.99469,28.14418 -14.67949,51.5458 -14.85517,52.00359 -0.26093,0.67995 9.74266,0.80241 54.63047,0.66878 L 928.96,331.2 l 0.73888,-24.32 c 0.4064,-13.376 0.7664,-25.72514 0.8,-27.44253 l 0.0608,-3.12255 14.24,0.34934 c 11.14483,0.27341 15.62163,0.64714 20.59642,1.71946 17.33977,3.7376 29.26502,11.66447 35.459,23.57012 3.4805,6.68987 5.1738,13.37379 5.6661,22.36616 l 0.3943,7.2 h 5.4097 c 10.285,0 19.192,3.6756 26.4638,10.92069 8.7743,8.74217 12.4374,21.22517 9.8479,33.55931 -2.8348,13.50188 -13.5181,24.63511 -26.9696,28.10548 -2.1628,0.55799 -6.4089,1.01452 -9.4356,1.01452 h -5.5033 l -0.1644,229.92 -0.1643,229.92 -1.6947,3.61472 c -2.1582,4.6032 -6.0874,8.53242 -10.6906,10.69056 l -3.61472,1.69472 -349.12,0.11936 c -304.23627,0.10406 -349.56584,0 -352.58792,-0.81446 z M 593.70371,556.64 c 0.27459,-0.44 0.57801,-1.3055 0.67427,-1.92334 0.14132,-0.90712 -2.29292,-8.02233 -4.56685,-13.34876 -0.33608,-0.78724 0.68911,-1.73623 4.32118,-4 2.61899,-1.63235 4.96446,-2.9679 5.21216,-2.9679 0.2477,0 0.98633,-0.648 1.64141,-1.44 2.22388,-2.68873 2.1357,-4.45811 -0.56506,-11.33804 l -2.54038,-6.47137 1.37978,-0.85223 c 7.4533,-4.60357 10.68351,-6.90685 11.29879,-8.05651 0.75707,-1.41461 0.72089,-4.96741 -0.0619,-6.08185 -0.75604,-1.07629 -3.77706,-8.80859 -3.77706,-9.66739 0,-0.44368 2.47327,-2.30062 5.49616,-4.12653 5.13171,-3.09971 7.97552,-6.01854 7.69906,-7.90219 -0.0624,-0.42534 -1.22119,-3.57245 -2.57503,-6.99359 l -2.46152,-6.22024 1.47317,-1.27768 c 1.46143,-1.26749 1.46401,-1.29669 0.3234,-3.66503 -0.63237,-1.31304 -1.29475,-4.14155 -1.47196,-6.28557 -0.29581,-3.5791 0.0518,-4.9937 4.24648,-17.28 4.70491,-13.78086 6.65025,-17.57117 10.15284,-19.78178 1.11545,-0.704 2.04176,-1.568 2.05848,-1.92 0.0167,-0.352 2.7638,-2.30796 6.10465,-4.34658 3.34083,-2.03862 6.07427,-3.9356 6.07427,-4.21552 0,-0.48402 -47.64358,-1.3579 -74.03273,-1.3579 h -12.3824 l 0.32117,2.4 c 2.70278,20.19704 4.18197,32.94324 4.62519,39.85521 0.33562,5.23415 0.27981,5.53839 -1.37744,7.50791 -1.9964,2.37259 -3.89975,2.96038 -12.83379,3.96331 -3.52,0.39515 -36.064,4.32334 -72.32,8.72929 -36.256,4.40596 -68.69811,8.32783 -72.09359,8.71526 -5.68951,0.64919 -6.34011,0.60716 -8.29735,-0.53593 -4.38956,-2.56363 -3.94546,-0.16496 -10.82614,-58.47505 -0.68535,-5.808 -1.24988,-10.92 -1.2545,-11.36 -0.007,-0.61754 -3.51158,-0.8 -15.36842,-0.8 h -15.36 l -0.0145,1.44 c -0.0476,4.7106 3.94983,142.42781 4.24477,146.24 l 0.35898,4.64 h 117.98762 c 93.69716,0 118.0904,-0.1647 118.48688,-0.8 z M 700.8,557.12735 c 0,-0.17196 9.648,-34.28613 21.44,-75.80928 11.792,-41.52314 21.44,-75.69744 21.44,-75.94288 0,-0.24544 -14.184,-0.2362 -31.52,0.0206 l -31.52,0.46678 -1.87475,2.27141 c -2.57427,3.11899 -6.19034,4.63485 -11.09747,4.65204 l -4.01216,0.0141 0.43827,1.76 c 0.24102,0.968 1.26694,3.77364 2.27968,6.23476 1.0128,2.46111 1.96832,5.48511 2.12339,6.72 0.15507,1.23488 0.53677,3.47327 0.84819,4.97419 0.78893,3.80224 0.0796,6.92213 -4.79526,21.09042 -4.60365,13.38018 -6.35584,16.31531 -11.22183,18.79773 -2.28134,1.16387 -2.49408,1.47657 -2.13043,3.13216 0.37178,1.69257 0.11136,2.0264 -3.26637,4.18709 -2.01868,1.29134 -4.12505,2.51447 -4.68076,2.71808 -1.41728,0.51923 -3.87808,3.2296 -4.55953,5.02193 -0.41256,1.08511 -0.22543,2.31693 0.6689,4.40334 0.68295,1.59323 1.25901,3.03336 1.28013,3.2003 0.0211,0.16694 0.60576,1.62711 1.2992,3.24483 0.69344,1.61771 1.25331,3.27741 1.24422,3.68823 -0.009,0.41082 -2.38515,2.15952 -5.28002,3.88601 -2.89487,1.72649 -5.76099,3.74249 -6.36917,4.48 -1.6719,2.02746 -1.37018,4.90258 1.18423,11.28473 1.27515,3.18594 2.21115,5.88631 2.08,6.00082 -0.13115,0.11451 -2.68646,1.73171 -5.67846,3.59378 -2.992,1.86207 -5.79084,3.84369 -6.21965,4.40359 -1.30384,1.70247 -0.91829,5.40446 1.06335,10.20999 1.03604,2.51241 1.69844,4.56802 1.472,4.56802 -0.22643,0 -0.0661,0.3456 0.3563,0.768 1.22911,1.22911 0.96502,1.58534 -2.752,3.712 -1.936,1.10767 -3.52,2.13681 -3.52,2.28697 0,0.15017 18.288,0.27303 40.64,0.27303 22.352,0 40.64,-0.14069 40.64,-0.31265 z M 922.49146,551.52 c 0.28972,-4.6244 4.3006,-142.27428 4.24249,-145.6 -0.0109,-0.6346 -13.30848,-0.8 -64.31609,-0.8 h -64.30208 l -0.96288,3.36 C 787.2889,442.90184 755.2,556.3628 755.2,556.81836 c 0,0.39901 29.88941,0.62164 83.46029,0.62164 h 83.46029 z"
         id="path5901" />
      <path
         style="fill:#67a5ac;stroke-width:0.63999999"
         d="m 288.69208,880.2649 c -1.90736,-0.51367 -4.41483,-1.51911 -5.57215,-2.23437 -3.20349,-1.97991 -7.66339,-7.28058 -8.98103,-10.67424 -1.13626,-2.92647 -1.18485,-11.34131 -1.34327,-232.63629 l -0.16437,-229.6 h -5.50325 c -3.02679,0 -7.27282,-0.45653 -9.43563,-1.01452 -13.45154,-3.47037 -24.13481,-14.6036 -26.96956,-28.10548 -2.58959,-12.33414 1.07351,-24.81714 9.84787,-33.55931 7.27195,-7.24526 16.17872,-10.92069 26.46443,-10.92069 h 5.41036 l 0.41174,-6.72941 c 0.54707,-8.94119 1.93933,-14.91225 4.92231,-21.11059 5.3094,-11.03244 13.93968,-18.22148 27.19805,-22.65607 8.55367,-2.86099 16.34883,-3.965 30.78968,-4.36068 l 12.88726,-0.35311 0.42375,11.76493 c 0.23307,6.47071 0.6258,18.82093 0.87274,27.44493 l 0.44899,15.68 9.71804,0.17644 9.71804,0.17645 0.68592,3.34355 c 0.37725,1.83896 2.80407,13.9355 5.39292,26.8812 2.58886,12.94569 4.84235,23.67296 5.00775,23.83837 0.1654,0.1654 8.34146,-0.69531 18.16903,-1.91268 9.82756,-1.21737 26.3643,-3.24126 36.7483,-4.49754 27.79667,-3.3629 58.72253,-7.11871 79.04,-9.59906 9.856,-1.20322 22.24,-2.67097 27.52,-3.26167 5.28,-0.59071 9.7663,-1.252 9.96955,-1.46954 0.20326,-0.21754 0.15419,-4.42752 -0.10902,-9.35552 -0.26321,-4.928 -0.65361,-12.344 -0.86756,-16.48 l -0.38898,-7.52 35.05801,-0.078 c 19.2819,-0.0429 40.098,-0.25888 46.258,-0.48 l 11.2,-0.40203 -9.44972,-0.90527 c -10.88869,-1.04312 -10.15835,-0.0196 -6.37097,-8.92856 11.39957,-26.81494 38.10511,-46.81178 66.83375,-50.04447 9.1495,-1.02955 13.23526,-0.28681 30.89004,5.61537 13.65562,4.56523 14.89504,5.10736 17.39757,7.60994 2.59258,2.59257 4.69933,7.39129 4.69933,10.70405 0,0.69231 -2.6185,9.15755 -5.81882,18.81167 -3.20038,9.65411 -5.66592,17.70589 -5.47897,17.89283 0.18694,0.18694 14.25344,0.0934 31.25888,-0.20784 L 798.4,330.56 783.68,326.46957 c -8.096,-2.24973 -15.04026,-4.26573 -15.43168,-4.48 -0.47693,-0.26108 4.32672,-18.12096 14.56416,-54.14957 8.40173,-29.568 15.34598,-54.16072 15.43168,-54.65048 0.11277,-0.64447 -3.67322,-1.97054 -13.70413,-4.8 L 770.68,204.48 l -10.83654,-10.36028 -10.83655,-10.36027 0.63834,-3.96333 c 1.28665,-7.98952 -1.30855,-16.85577 -6.62074,-22.61876 -8.41849,-9.13305 -30.76345,-12.75744 -55.62752,-9.02292 -13.01971,1.95554 -28.71021,6.10617 -40.88429,10.81517 -3.05401,1.1813 -5.64454,1.90887 -5.7568,1.61684 -0.27174,-0.70695 4.59661,-10.31281 7.08922,-13.98799 3.04333,-4.48707 12.4375,-13.53606 17.52147,-16.87766 14.52627,-9.54776 33.1225,-15.44492 55.82125,-17.70181 8.63827,-0.85889 31.43859,-0.84453 40.97606,0.0258 l 7.5042,0.68479 14.26745,-3.23216 14.26752,-3.23217 53.1881,15.07661 53.18803,15.07661 9.3104,8.84519 c 13.70534,13.02055 12.57619,11.44722 11.33837,15.79834 -0.57242,2.01221 -0.94138,3.75793 -0.81991,3.87939 0.54804,0.54806 31.35162,9.06601 31.79488,8.79207 0.27424,-0.16948 0.69472,-1.2012 0.93447,-2.29273 0.5792,-2.63717 4.48192,-6.87812 7.66259,-8.3267 1.408,-0.64125 3.92461,-1.17224 5.59245,-1.17997 2.77069,-0.0129 20.0135,4.38561 26.55577,6.7741 4.86378,1.77568 9.13178,8.06133 9.13178,13.44875 0,1.01662 -3.9876,15.89454 -8.86125,33.06203 -9.66662,34.05036 -9.79392,34.36099 -15.35821,37.47027 -4.13235,2.3091 -7.76659,2.05065 -20.26054,-1.4408 -5.984,-1.67225 -12.032,-3.5538 -13.44,-4.18123 -6.17062,-2.74975 -9.36563,-9.74423 -7.75949,-16.98718 l 0.42579,-1.92 -15.68281,-4.43702 c -8.62554,-2.44037 -15.90343,-4.21754 -16.17312,-3.94929 -0.2697,0.26825 -1.06637,2.26219 -1.77037,4.43095 l -1.28,3.94322 -14.4,3.23612 -14.4,3.23612 -13.97229,-3.9454 c -13.81613,-3.90131 -13.97881,-3.93026 -14.55398,-2.59005 -0.31994,0.74545 -6.93453,23.81935 -14.69901,51.27535 -7.76454,27.456 -14.26714,50.42562 -14.4503,51.04359 -0.31597,1.06619 2.47251,1.11522 54.59129,0.96 L 928.96,331.2 l 0.73888,-24.32 c 0.4064,-13.376 0.7664,-25.72514 0.8,-27.44253 l 0.0608,-3.12255 14.24,0.34934 c 11.14483,0.27341 15.62163,0.64714 20.59642,1.71946 17.33977,3.7376 29.26502,11.66447 35.459,23.57012 3.4805,6.68987 5.1738,13.37379 5.6661,22.36616 l 0.3943,7.2 h 5.4097 c 10.285,0 19.192,3.6756 26.4638,10.92069 8.7743,8.74217 12.4374,21.22517 9.8479,33.55931 -2.8348,13.50188 -13.5181,24.63511 -26.9696,28.10548 -2.1628,0.55799 -6.4089,1.01452 -9.4356,1.01452 h -5.5033 l -0.1644,229.92 -0.1643,229.92 -1.6947,3.61472 c -2.1582,4.6032 -6.0874,8.53242 -10.6906,10.69056 l -3.61472,1.69472 -349.12,0.11936 c -304.23627,0.10406 -349.56584,0 -352.58792,-0.81446 z M 593.792,556.672 c 1.27217,-1.27217 0.85782,-3.71827 -1.73925,-10.26768 l -2.47266,-6.23568 5.72516,-3.30419 c 5.70075,-3.29009 7.57475,-5.31926 7.57475,-8.20193 0,-0.72657 -1.008,-3.82084 -2.24,-6.87615 -1.232,-3.05531 -2.23901,-5.85914 -2.2378,-6.23074 10e-4,-0.3716 2.56639,-2.23022 5.70039,-4.13027 3.22546,-1.9555 6.00179,-4.12096 6.3978,-4.99012 0.82302,-1.80632 0.92395,-5.43912 0.17525,-6.30724 -0.91542,-1.06141 -4.11313,-9.94384 -3.721,-10.33597 0.20679,-0.20679 2.6142,-1.71904 5.3498,-3.36054 5.13632,-3.08207 7.94786,-6.21059 7.53022,-8.3792 -0.1319,-0.68492 -1.27298,-3.85799 -2.53572,-7.05125 l -2.29589,-5.80594 1.44802,-1.17253 c 1.44365,-1.16901 1.44446,-1.17997 0.26745,-3.63755 -0.64932,-1.35577 -1.32918,-4.08314 -1.5108,-6.06085 -0.29371,-3.19812 0.14698,-5.03861 3.98425,-16.64 4.80449,-14.52563 6.30526,-17.62753 9.7823,-20.2187 1.31215,-0.97785 2.607,-2.12346 2.87745,-2.54581 0.27046,-0.42235 2.89591,-2.2201 5.83435,-3.99501 2.93844,-1.7749 5.66548,-3.61607 6.05998,-4.09148 0.59993,-0.72287 -4.38887,-0.93373 -30.47433,-1.28806 -17.15544,-0.23302 -36.73912,-0.424 -43.51928,-0.42439 l -12.32757,-7.2e-4 0.32117,2.4 c 2.70278,20.19704 4.18197,32.94324 4.62519,39.85521 0.33562,5.23415 0.27981,5.53839 -1.37744,7.50791 -1.9964,2.37259 -3.89975,2.96038 -12.83379,3.96331 -3.52,0.39515 -36.064,4.32334 -72.32,8.72929 -36.256,4.40596 -68.69811,8.32783 -72.09359,8.71526 -5.68951,0.64919 -6.34011,0.60716 -8.29735,-0.53593 -4.38956,-2.56363 -3.94546,-0.16496 -10.82614,-58.47505 -0.68535,-5.808 -1.24988,-10.92 -1.2545,-11.36 -0.007,-0.61754 -3.51158,-0.8 -15.36842,-0.8 h -15.36 l -0.0145,1.44 c -0.0476,4.7106 3.94983,142.42781 4.24477,146.24 l 0.35898,4.64 h 117.89739 c 90.84464,0 118.07362,-0.17622 118.6654,-0.768 z m 328.69946,-5.152 c 0.29126,-4.64884 4.29894,-142.2324 4.24249,-145.64427 -0.0115,-0.6971 -21.41939,-0.79195 -122.81293,-0.54417 l -122.79897,0.30011 -2.90029,2.90028 c -3.34086,3.34084 -6.47603,4.50653 -11.23443,4.17708 -2.39021,-0.16548 -3.30803,-3.5e-4 -3.30771,0.5951 1.9e-4,0.45327 1.03411,3.47727 2.29753,6.72 2.41594,6.20064 2.63354,7.14425 3.23034,14.00713 0.35238,4.05184 0.13734,4.97358 -4.18579,17.94358 -5.01293,15.03966 -6.23712,17.17447 -11.60736,20.24152 -2.36768,1.35224 -2.95245,1.98197 -2.50189,2.69418 0.32333,0.5112 0.59238,1.25729 0.59776,1.65797 0.009,0.69236 -7.84064,5.99149 -8.87559,5.99149 -0.82822,0 -3.15209,2.78164 -3.83921,4.59544 -0.67726,1.78781 0.0755,4.63003 3.07832,11.62238 0.73171,1.70379 1.17113,3.35545 0.97651,3.67034 -0.19462,0.31489 -2.41754,1.77779 -4.93985,3.25089 -2.52229,1.47311 -5.24398,3.33636 -6.04819,4.14057 -2.08174,2.08174 -1.883,5.35018 0.71728,11.79588 1.1987,2.97143 2.05464,5.60456 1.90209,5.85141 -0.15256,0.24684 -2.71764,1.92279 -5.70017,3.72433 -5.7654,3.48246 -6.83012,4.7153 -6.82818,7.90627 10e-4,1.81196 2.46655,9.18956 4.05855,12.14481 0.75828,1.40761 1.10486,1.03638 -3.61177,3.86858 l -3.84,2.30581 151.78029,0.002 151.78029,0.002 0.37088,-5.92 z"
         id="path5899" />
      <path
         style="fill:#e18525;stroke-width:0.63999999"
         d="m 288.69208,880.2649 c -1.90736,-0.51367 -4.41483,-1.51911 -5.57215,-2.23437 -3.20349,-1.97991 -7.66339,-7.28058 -8.98103,-10.67424 -1.13626,-2.92647 -1.18485,-11.34131 -1.34327,-232.63629 l -0.16437,-229.6 h -5.50325 c -3.02679,0 -7.27282,-0.45653 -9.43563,-1.01452 -13.45154,-3.47037 -24.13481,-14.6036 -26.96956,-28.10548 -2.58959,-12.33414 1.07351,-24.81714 9.84787,-33.55931 7.27195,-7.24526 16.17872,-10.92069 26.46443,-10.92069 h 5.41036 l 0.41174,-6.72941 c 0.54707,-8.94119 1.93933,-14.91225 4.92231,-21.11059 5.3094,-11.03244 13.93968,-18.22148 27.19805,-22.65607 8.55367,-2.86099 16.34883,-3.965 30.78968,-4.36068 l 12.88726,-0.35311 0.42375,11.76493 c 0.23307,6.47071 0.6258,18.82093 0.87274,27.44493 l 0.44899,15.68 9.76,0.17667 c 5.368,0.0972 9.76,0.25024 9.76,0.34016 0,0.0899 2.55779,12.97041 5.68398,28.62333 3.12619,15.65291 6.02085,31.48384 6.43258,35.17984 0.41173,3.696 0.88343,7.368 1.04821,8.16 l 0.29961,1.44 H 368.01219 352.64 l -0.0145,1.44 c -0.0476,4.7106 3.94983,142.42781 4.24477,146.24 l 0.35898,4.64 h 117.89739 c 90.84464,0 118.07362,-0.17622 118.6654,-0.768 1.27216,-1.27217 0.85781,-3.71827 -1.73925,-10.26768 l -2.47266,-6.23568 5.72516,-3.30419 c 5.70074,-3.29009 7.57474,-5.31926 7.57474,-8.20193 0,-0.72657 -1.008,-3.82084 -2.24,-6.87615 -1.232,-3.05531 -2.23901,-5.85914 -2.2378,-6.23074 10e-4,-0.3716 2.56639,-2.23022 5.70039,-4.13027 3.22546,-1.9555 6.00179,-4.12096 6.3978,-4.99012 0.82302,-1.80632 0.92395,-5.43912 0.17525,-6.30724 -0.91542,-1.06141 -4.11313,-9.94384 -3.721,-10.33597 0.20679,-0.20679 2.6142,-1.71904 5.3498,-3.36054 5.13632,-3.08207 7.94786,-6.21059 7.53022,-8.3792 -0.1319,-0.68492 -1.27298,-3.85799 -2.53572,-7.05125 l -2.29589,-5.80594 1.44802,-1.17253 c 1.44365,-1.16901 1.44446,-1.17997 0.26745,-3.63755 -0.64932,-1.35577 -1.32918,-4.08314 -1.5108,-6.06085 -0.29371,-3.19812 0.14698,-5.03861 3.98425,-16.64 4.80449,-14.52563 6.30526,-17.62753 9.7823,-20.2187 1.31215,-0.97785 2.607,-2.12346 2.87745,-2.54581 0.27046,-0.42235 2.89591,-2.2201 5.83435,-3.99501 2.93844,-1.7749 5.66548,-3.61607 6.05998,-4.09148 0.59993,-0.72287 -4.38887,-0.93373 -30.47433,-1.28806 -17.15544,-0.23302 -36.6956,-0.424 -43.42257,-0.42439 l -12.23086,-7.2e-4 -0.38213,-3.04 c -0.21017,-1.672 -1.24049,-9.808 -2.28959,-18.08 -2.11076,-16.64285 -2.41712,-20.04893 -2.93584,-32.64 -0.19577,-4.752 -0.52485,-11.16 -0.73128,-14.24 l -0.37533,-5.6 35.10794,-0.078 c 19.30937,-0.0429 40.14794,-0.25888 46.30794,-0.48 l 11.2,-0.40203 -9.44972,-0.90527 c -10.88869,-1.04312 -10.15835,-0.0196 -6.37097,-8.92856 11.39957,-26.81494 38.10511,-46.81178 66.83375,-50.04447 9.1495,-1.02955 13.23526,-0.28681 30.89004,5.61537 13.65562,4.56523 14.89504,5.10736 17.39757,7.60994 2.59258,2.59257 4.69933,7.39129 4.69933,10.70405 0,0.69231 -2.6185,9.15755 -5.81882,18.81167 -3.20038,9.65411 -5.66592,17.70589 -5.47897,17.89283 0.18694,0.18694 14.25344,0.0934 31.25888,-0.20784 L 798.4,330.56 783.68,326.46957 c -8.096,-2.24973 -15.04026,-4.26573 -15.43168,-4.48 -0.47693,-0.26108 4.32672,-18.12096 14.56416,-54.14957 8.40173,-29.568 15.34598,-54.16072 15.43168,-54.65048 0.11277,-0.64447 -3.67322,-1.97054 -13.70413,-4.8 L 770.68,204.48 l -10.83654,-10.36028 -10.83655,-10.36027 0.63834,-3.96333 c 1.28665,-7.98952 -1.30855,-16.85577 -6.62074,-22.61876 -8.41849,-9.13305 -30.76345,-12.75744 -55.62752,-9.02292 -13.01971,1.95554 -28.71021,6.10617 -40.88429,10.81517 -3.05401,1.1813 -5.64454,1.90887 -5.7568,1.61684 -0.27174,-0.70695 4.59661,-10.31281 7.08922,-13.98799 3.04333,-4.48707 12.4375,-13.53606 17.52147,-16.87766 14.52627,-9.54776 33.1225,-15.44492 55.82125,-17.70181 8.63827,-0.85889 31.43859,-0.84453 40.97606,0.0258 l 7.5042,0.68479 14.26745,-3.23216 14.26752,-3.23217 53.1881,15.07661 53.18803,15.07661 9.3104,8.84519 c 13.70534,13.02055 12.57619,11.44722 11.33837,15.79834 -0.57242,2.01221 -0.94138,3.75793 -0.81991,3.87939 0.54804,0.54806 31.35162,9.06601 31.79488,8.79207 0.27424,-0.16948 0.69472,-1.2012 0.93447,-2.29273 0.5792,-2.63717 4.48192,-6.87812 7.66259,-8.3267 1.408,-0.64125 3.92461,-1.17224 5.59245,-1.17997 2.77069,-0.0129 20.0135,4.38561 26.55577,6.7741 4.86378,1.77568 9.13178,8.06133 9.13178,13.44875 0,1.01662 -3.9876,15.89454 -8.86125,33.06203 -9.66662,34.05036 -9.79392,34.36099 -15.35821,37.47027 -4.13235,2.3091 -7.76659,2.05065 -20.26054,-1.4408 -5.984,-1.67225 -12.032,-3.5538 -13.44,-4.18123 -6.17062,-2.74975 -9.36563,-9.74423 -7.75949,-16.98718 l 0.42579,-1.92 -15.68281,-4.43702 c -8.62554,-2.44037 -15.90343,-4.21754 -16.17312,-3.94929 -0.2697,0.26825 -1.06637,2.26219 -1.77037,4.43095 l -1.28,3.94322 -14.4,3.23612 -14.4,3.23612 -13.97229,-3.9454 c -13.81613,-3.90131 -13.97881,-3.93026 -14.55398,-2.59005 -0.31994,0.74545 -6.93453,23.81935 -14.69901,51.27535 -7.76454,27.456 -14.26714,50.42562 -14.4503,51.04359 -0.31597,1.06619 2.47251,1.11522 54.59129,0.96 L 928.96,331.2 l 0.73888,-24.32 c 0.4064,-13.376 0.7664,-25.72514 0.8,-27.44253 l 0.0608,-3.12255 14.24,0.34934 c 11.14483,0.27341 15.62163,0.64714 20.59642,1.71946 17.33977,3.7376 29.26502,11.66447 35.459,23.57012 3.4805,6.68987 5.1738,13.37379 5.6661,22.36616 l 0.3943,7.2 h 5.4097 c 10.285,0 19.192,3.6756 26.4638,10.92069 8.7743,8.74217 12.4374,21.22517 9.8479,33.55931 -2.8348,13.50188 -13.5181,24.63511 -26.9696,28.10548 -2.1628,0.55799 -6.4089,1.01452 -9.4356,1.01452 h -5.5033 l -0.1644,229.92 -0.1643,229.92 -1.6947,3.61472 c -2.1582,4.6032 -6.0874,8.53242 -10.6906,10.69056 l -3.61472,1.69472 -349.12,0.11936 c -304.23627,0.10406 -349.56584,0 -352.58792,-0.81446 z M 922.49146,551.52 c 0.29126,-4.64884 4.29894,-142.2324 4.24249,-145.64427 -0.0115,-0.6971 -21.41939,-0.79195 -122.81293,-0.54417 l -122.79897,0.30011 -2.90029,2.90028 c -3.34086,3.34084 -6.47603,4.50653 -11.23443,4.17708 -2.39021,-0.16548 -3.30803,-3.5e-4 -3.30771,0.5951 1.9e-4,0.45327 1.03411,3.47727 2.29753,6.72 2.41594,6.20064 2.63354,7.14425 3.23034,14.00713 0.35238,4.05184 0.13734,4.97358 -4.18579,17.94358 -5.01293,15.03966 -6.23712,17.17447 -11.60736,20.24152 -2.36768,1.35224 -2.95245,1.98197 -2.50189,2.69418 0.32333,0.5112 0.59238,1.25729 0.59776,1.65797 0.009,0.69236 -7.84064,5.99149 -8.87559,5.99149 -0.82822,0 -3.15209,2.78164 -3.83921,4.59544 -0.67726,1.78781 0.0755,4.63003 3.07832,11.62238 0.73171,1.70379 1.17113,3.35545 0.97651,3.67034 -0.19462,0.31489 -2.41754,1.77779 -4.93985,3.25089 -2.52229,1.47311 -5.24398,3.33636 -6.04819,4.14057 -2.08174,2.08174 -1.883,5.35018 0.71728,11.79588 1.1987,2.97143 2.05464,5.60456 1.90209,5.85141 -0.15256,0.24684 -2.71764,1.92279 -5.70017,3.72433 -5.7654,3.48246 -6.83012,4.7153 -6.82818,7.90627 10e-4,1.81196 2.46655,9.18956 4.05855,12.14481 0.75828,1.40761 1.10486,1.03638 -3.61177,3.86858 l -3.84,2.30581 151.78029,0.002 151.78029,0.002 0.37088,-5.92 z"
         id="path5897" />
      <path
         style="fill:#737777;stroke-width:0.63999999"
         d="m 288.69208,880.2649 c -1.90736,-0.51367 -4.41483,-1.51911 -5.57215,-2.23437 -3.20349,-1.97991 -7.66339,-7.28058 -8.98103,-10.67424 -1.13626,-2.92647 -1.18485,-11.34131 -1.34327,-232.63629 l -0.16437,-229.6 h -5.50325 c -3.02679,0 -7.27282,-0.45653 -9.43563,-1.01452 -13.45154,-3.47037 -24.13481,-14.6036 -26.96956,-28.10548 -2.58959,-12.33414 1.07351,-24.81714 9.84787,-33.55931 7.27195,-7.24526 16.17872,-10.92069 26.46443,-10.92069 h 5.41036 l 0.41174,-6.72941 c 0.54707,-8.94119 1.93933,-14.91225 4.92231,-21.11059 5.3094,-11.03244 13.93968,-18.22148 27.19805,-22.65607 8.55367,-2.86099 16.34883,-3.965 30.78968,-4.36068 l 12.88726,-0.35311 0.42375,11.76493 c 0.23307,6.47071 0.6258,18.82093 0.87274,27.44493 l 0.44899,15.68 9.68081,0.17624 9.68081,0.17625 5.60127,27.98375 c 4.88526,24.40665 6.24732,32.16213 7.5842,43.18376 l 0.29111,2.4 H 367.9391 352.64 l -0.0145,1.44 c -0.0476,4.7106 3.94983,142.42781 4.24477,146.24 l 0.35898,4.64 h 118.27692 c 107.26269,0 118.3131,-0.0943 118.66539,-1.01235 0.77268,-2.01355 0.34833,-4.22574 -1.86215,-9.70764 -1.23785,-3.06981 -2.12707,-5.90349 -1.97604,-6.29707 0.15103,-0.39358 2.60864,-2.08394 5.46135,-3.75637 8.10567,-4.75203 8.49698,-6.03498 4.73768,-15.53314 -1.29121,-3.26231 -2.22721,-6.02885 -2.08,-6.14785 0.1472,-0.11899 2.78795,-1.72296 5.86833,-3.56435 3.08039,-1.8414 5.88839,-3.88554 6.24,-4.54254 1.15495,-2.15803 0.67342,-5.42533 -1.64801,-11.1824 -1.80271,-4.47063 -2.10779,-5.77942 -1.44,-6.17735 10.01837,-5.96969 11.08524,-6.77326 11.92618,-8.98277 0.82425,-2.16564 0.73091,-2.64669 -1.72979,-8.91506 -1.93435,-4.92759 -2.39958,-6.74878 -1.81506,-7.10528 2.37543,-1.44875 2.38202,-1.47979 0.93081,-4.38422 -1.10229,-2.20609 -1.40654,-3.86575 -1.34405,-7.33161 0.0678,-3.76167 0.75909,-6.40647 4.31125,-16.49485 2.32675,-6.60816 4.63818,-12.80328 5.13649,-13.76692 1.29581,-2.5058 7.68897,-8.22894 12.55149,-11.23603 4.97228,-3.07499 7.1214,-4.89272 6.66252,-5.63523 C 643.91664,405.36614 624.3816,405.12 600.6914,405.12 h -43.07308 l -0.38213,-3.04 c -0.21017,-1.672 -1.24219,-9.808 -2.29338,-18.08 -1.93011,-15.18844 -2.195,-18.75571 -3.0059,-40.48 l -0.44791,-12 49.21552,-0.0843 49.21551,-0.0843 -11.84,-1.24865 c -6.512,-0.68676 -12.19944,-1.35956 -12.63876,-1.49512 -0.60006,-0.18515 -0.47805,-1.08744 0.49047,-3.62702 8.44556,-22.14542 25.85306,-40.01668 47.62381,-48.89251 11.08192,-4.51805 23.46752,-6.59393 32.20013,-5.39688 4.90093,0.67181 29.39046,8.53844 34.25293,11.00287 4.95558,2.51161 8.19078,9.76625 6.88876,15.44755 -0.34009,1.48413 -2.93113,9.60366 -5.75788,18.04341 C 738.31277,323.62476 736,330.75369 736,331.02707 c 0,0.27339 43.416,0.42414 96.48,0.335 l 96.48,-0.16207 0.73888,-24.32 c 0.4064,-13.376 0.7664,-25.72514 0.8,-27.44253 l 0.0608,-3.12255 14.24,0.34934 c 11.14483,0.27341 15.62163,0.64714 20.59642,1.71946 17.33977,3.7376 29.26502,11.66447 35.459,23.57012 3.4805,6.68987 5.1738,13.37379 5.6661,22.36616 l 0.3943,7.2 h 5.4097 c 10.285,0 19.192,3.6756 26.4638,10.92069 8.7743,8.74217 12.4374,21.22517 9.8479,33.55931 -2.8348,13.50188 -13.5181,24.63511 -26.9696,28.10548 -2.1628,0.55799 -6.4089,1.01452 -9.4356,1.01452 h -5.5033 l -0.1644,229.92 -0.1643,229.92 -1.6947,3.61472 c -2.1582,4.6032 -6.0874,8.53242 -10.6906,10.69056 l -3.61472,1.69472 -349.12,0.11936 c -304.23627,0.10406 -349.56584,0 -352.58792,-0.81446 z M 922.49146,551.52 c 0.28972,-4.6244 4.3006,-142.27428 4.24249,-145.6 -0.0109,-0.63719 -25.05369,-0.79911 -123.05395,-0.79563 l -123.04,0.004 -1.51558,2.22553 c -2.29261,3.36651 -7.48954,5.68009 -11.93165,5.31172 -4.30087,-0.35667 -4.36103,-0.076 -1.49933,6.99734 2.20448,5.44864 2.98515,8.69264 3.52877,14.6629 0.33241,3.65052 0.0365,4.86374 -4.21389,17.27669 -2.5143,7.34274 -5.30509,14.40912 -6.20179,15.70306 -1.54195,2.2251 -4.98611,4.92693 -7.43936,5.83598 -0.90931,0.33695 -0.99712,0.71678 -0.48,2.07686 0.34803,0.91548 0.63283,1.76238 0.63283,1.88201 0,0.11963 -2.24947,1.5363 -4.99885,3.14815 -9.43729,5.53269 -9.64649,6.36875 -4.69427,18.76087 l 1.33069,3.32986 -5.28575,3.19274 c -8.93272,5.39562 -9.24791,6.24699 -5.67877,15.33901 1.8095,4.60952 2.32783,6.61576 1.81101,7.00956 -0.39823,0.30343 -2.59606,1.65107 -4.88406,2.99475 -8.36091,4.91014 -8.83187,6.18742 -5.47921,14.86009 1.25357,3.24274 2.27921,6.17158 2.27921,6.50855 0,0.33696 -1.656,1.63611 -3.68,2.88699 l -3.68,2.27432 151.78029,0.0172 151.78029,0.0171 0.37088,-5.92 z m 49.40972,-297.52474 c -5.68166,-1.31042 -23.02656,-6.40994 -24.60217,-7.23323 -5.48307,-2.86499 -8.39885,-9.91602 -6.8985,-16.68203 l 0.42579,-1.92 -15.68281,-4.43702 c -8.62554,-2.44037 -15.90343,-4.21755 -16.17312,-3.9493 -0.2697,0.26826 -1.06637,2.26219 -1.77037,4.43096 l -1.28,3.94321 -14.4,3.23712 -14.4,3.23711 -38.08,-10.76695 c -20.944,-5.92182 -44.89171,-12.70379 -53.21709,-15.07104 L 770.68582,204.48 759.8464,194.11972 l -10.83949,-10.36027 0.63834,-3.96333 c 1.28665,-7.98952 -1.30855,-16.85577 -6.62074,-22.61876 -8.41849,-9.13305 -30.76345,-12.75744 -55.62752,-9.02292 -13.01971,1.95554 -28.71021,6.10617 -40.88429,10.81517 -3.05401,1.1813 -5.64454,1.90887 -5.7568,1.61684 -0.27174,-0.70695 4.59661,-10.31281 7.08922,-13.98799 3.04333,-4.48707 12.4375,-13.53606 17.52147,-16.87766 14.52627,-9.54776 33.1225,-15.44492 55.82125,-17.70181 8.63827,-0.85889 31.43859,-0.84453 40.97606,0.0258 l 7.5042,0.68479 14.26745,-3.23216 14.26752,-3.23217 53.1881,15.07661 53.18803,15.07661 9.3104,8.84519 c 13.70534,13.02055 12.57619,11.44722 11.33837,15.79834 -0.57242,2.01221 -0.94138,3.75793 -0.81991,3.87939 0.54804,0.54806 31.35162,9.06601 31.79488,8.79207 0.27424,-0.16948 0.69472,-1.2012 0.93447,-2.29273 0.5792,-2.63717 4.48192,-6.87812 7.66259,-8.3267 1.408,-0.64125 3.92461,-1.17224 5.59245,-1.17997 2.77069,-0.0129 20.0135,4.38561 26.55577,6.7741 4.86378,1.77568 9.13178,8.06133 9.13178,13.44875 0,1.01662 -3.9876,15.89454 -8.86125,33.06203 -7.47769,26.34008 -9.16045,31.58582 -10.77721,33.59735 -3.509,4.3657 -9.2306,6.40362 -14.54036,5.17898 z"
         id="path5895" />
      <path
         style="fill:#e9442c;stroke-width:0.63999999"
         d="m 290.87359,880.64992 c -6.94418,-1.02374 -12.93157,-5.66278 -16.12014,-12.48992 l -1.79345,-3.84 -0.16609,-229.50966 -0.16608,-229.50965 -6.87392,-0.36013 c -10.40358,-0.54505 -18.32131,-3.90796 -25.05499,-10.64164 -14.1987,-14.1987 -14.1987,-37.75914 0,-51.95784 6.71915,-6.71915 14.65522,-10.09664 24.99832,-10.63896 l 6.81724,-0.35744 0.43083,-6.47234 c 0.98476,-14.79382 4.62368,-23.92177 12.79427,-32.09343 7.76691,-7.76791 17.88075,-12.4273 31.91058,-14.70101 7.06245,-1.14456 23.96784,-1.95648 28.03564,-1.34648 l 2.92254,0.43827 0.41025,12.61515 c 0.22563,6.93834 0.60055,19.16716 0.83314,27.17516 l 0.42289,14.56 h 9.74769 9.74768 l 5.59327,28.32 c 4.94787,25.05212 7.33259,39.27424 7.35095,43.84 l 0.006,1.44 h -15.04 -15.04 l -0.0298,2.08 c -0.0164,1.144 0.91369,35.416 2.06688,76.16 l 2.0967,74.08 H 639.47787 922.182 l 0.30567,-2.08 c 0.26093,-1.7758 4.32403,-143.51394 4.25632,-148.48 l -0.024,-1.76 -123.04,0.004 -123.04,0.004 -1.50573,2.21112 c -1.97081,2.89416 -7.12134,5.46198 -10.9399,5.45417 -1.84736,-0.004 -7.10688,-1.40967 -14.36557,-3.84 L 642.3776,405.12 H 599.98804 557.5985 l -0.32841,-3.36 c -0.18062,-1.848 -1.20941,-10.416 -2.28619,-19.04 -1.78351,-14.28429 -3.3039,-35.84397 -3.3039,-46.85051 V 331.52 l 49.12,-0.0843 49.12,-0.0843 -11.84,-1.24865 c -6.512,-0.68676 -12.19944,-1.35956 -12.63876,-1.49512 -0.60006,-0.18515 -0.47805,-1.08744 0.49047,-3.62702 8.44556,-22.14542 25.85306,-40.01668 47.62381,-48.89251 11.08192,-4.51805 23.46752,-6.59393 32.20013,-5.39688 4.90093,0.67181 29.39046,8.53844 34.25293,11.00287 4.95558,2.51161 8.19078,9.76625 6.88876,15.44755 -0.34009,1.48413 -2.93113,9.60366 -5.75788,18.04341 C 738.31277,323.62476 736,330.75369 736,331.02707 c 0,0.27339 43.416,0.42414 96.48,0.335 l 96.48,-0.16207 0.42957,-13.12 c 0.23629,-7.216 0.62963,-19.56723 0.87411,-27.44717 l 0.44448,-14.32717 13.84595,0.37421 c 10.14291,0.27413 15.47194,0.71406 19.92589,1.64496 27.20512,5.686 40.4293,20.21377 42.0042,46.14486 l 0.4178,6.87767 6.789,0.3561 c 7.9116,0.41499 12.8785,1.90997 18.5721,5.58995 22.3738,14.46083 22.899,46.70879 0.9994,61.35615 -6.4457,4.31112 -11.2573,5.85096 -19.6581,6.29108 l -6.8757,0.36021 -0.1643,229.50958 c -0.1609,224.63373 -0.1905,229.57754 -1.3941,232.70957 -1.6553,4.30765 -7.90265,10.55501 -12.2103,12.2103 -3.14125,1.20711 -9.58362,1.23117 -351.04,1.31104 -191.312,0.0448 -349.28289,-0.13145 -351.04641,-0.39142 z M 590.46841,541.61508 c -1.87286,-1.87287 2.48632,-3.14682 12.41159,-3.62726 4.752,-0.23002 10.872,-0.59679 13.6,-0.81504 l 4.96,-0.39681 v 1.69201 c 0,1.41891 -0.28408,1.69219 -1.76,1.69308 -2.33919,10e-4 -22.08214,1.18825 -25.85159,1.55406 -1.63437,0.1586 -3.14637,0.11358 -3.36,-0.10004 z m 20.43943,-35.50819 c 0.24815,-0.80679 0.50988,-1.53737 0.58163,-1.62352 0.21369,-0.25655 30.05613,-2.03111 30.28627,-1.80094 0.11636,0.11635 -0.86016,0.87395 -2.1701,1.68353 -1.97749,1.22215 -3.69392,1.55366 -10.11367,1.95331 -4.25258,0.26474 -10.27522,0.65531 -13.38364,0.86794 l -5.65166,0.38658 z M 641.6,473.94651 c -1.76,-0.3606 -7.736,-0.58561 -13.28,-0.50004 -5.82035,0.0898 -10.08,-0.0932 -10.08,-0.43309 0,-0.32378 -0.17481,-1.04425 -0.38847,-1.60103 -0.33462,-0.872 0.35299,-1.01648 4.96,-1.04215 l 5.34847,-0.0298 -2.96484,-1.54427 c -6.55986,-3.41676 -9.88294,-8.86623 -9.75439,-15.99611 0.0678,-3.76167 0.7591,-6.40647 4.31125,-16.49485 5.1165,-14.53127 5.34689,-14.99361 9.13073,-18.32429 3.63602,-3.20055 8.63667,-4.86624 12.75507,-4.24864 2.93197,0.43968 16.24109,4.73901 18.89594,6.10407 5.13965,2.64271 8.90912,9.22556 8.90298,15.54772 -0.006,4.02529 -8.05882,28.21038 -10.63277,31.9253 -3.67597,5.30539 -10.62298,7.98552 -17.20397,6.6372 z m 319.36,-222.9651 c -5.632,-1.6606 -11.1079,-3.33203 -12.16864,-3.71428 -2.95693,-1.06556 -5.82342,-3.79089 -7.38912,-7.02511 -1.2023,-2.48371 -1.36435,-3.63045 -1.06746,-7.55595 l 0.35002,-4.62784 -15.4624,-4.36195 c -8.50432,-2.39907 -15.7127,-4.39217 -16.01862,-4.42911 -0.30592,-0.0369 -1.08928,1.78249 -1.7408,4.0432 -0.65152,2.2607 -1.50996,4.31145 -1.90765,4.55723 -0.3977,0.24578 -6.98451,1.82662 -14.63744,3.51298 l -13.91437,3.0661 -14.34176,-3.99475 c -17.32858,-4.82669 -58.28845,-16.43381 -77.86835,-22.06614 l -14.24659,-4.09817 -10.36167,-10.06027 -10.36166,-10.06028 -0.0582,-7.76353 c -0.0715,-9.51158 -1.33933,-13.329 -6.18925,-18.63553 -4.0153,-4.39342 -10.0967,-7.49481 -18.45594,-9.41216 -8.1038,-1.85876 -27.38092,-2.02839 -38.14963,-0.3357 -12.81881,2.01495 -33.57101,7.74505 -43.5664,12.02959 l -2.8471,1.2204 0.44505,-1.43507 c 1.89056,-6.09647 7.99002,-15.32342 14.30944,-21.64657 13.13901,-13.14677 32.15764,-21.28109 59.24864,-25.34082 6.23783,-0.93476 11.4658,-1.13908 27.84,-1.08802 11.088,0.0346 21.6,0.32576 23.36,0.64706 2.79911,0.511 5.03162,0.1705 17.82106,-2.71807 l 14.62106,-3.30226 53.28236,15.12681 53.28231,15.1268 10.71846,10.34348 10.71847,10.34347 -1.06458,3.66184 c -0.58547,2.01402 -0.82931,3.86265 -0.54182,4.10808 0.49081,0.41904 30.77964,9.03289 31.64268,8.99889 0.22004,-0.009 0.55917,-0.80776 0.75367,-1.77576 0.99283,-4.94101 6.51949,-9.62059 12.03424,-10.18976 2.98157,-0.30772 5.31885,0.14831 15.32512,2.99017 15.44345,4.38607 17.29507,5.35444 19.88117,10.39754 2.6559,5.17927 2.5996,5.49956 -6.78754,38.55723 -4.79706,16.89335 -9.35302,31.85656 -10.12429,33.25158 -0.77133,1.39502 -2.64454,3.40851 -4.16269,4.47442 -2.38214,1.6725 -3.39052,1.95593 -7.36,2.06877 -3.84793,0.10939 -6.27321,-0.36269 -14.83968,-2.88854 z"
         id="path5893" />
      <path
         style="fill:#565759;stroke-width:0.63999999"
         d="m 290.87359,880.64992 c -6.94418,-1.02374 -12.93157,-5.66278 -16.12014,-12.48992 l -1.79345,-3.84 -0.16609,-229.50966 -0.16608,-229.50965 -6.87392,-0.36013 c -10.40358,-0.54505 -18.32131,-3.90796 -25.05499,-10.64164 -14.1987,-14.1987 -14.1987,-37.75914 0,-51.95784 6.71915,-6.71915 14.65522,-10.09664 24.99832,-10.63896 l 6.81724,-0.35744 0.43083,-6.47234 c 0.98476,-14.79382 4.62368,-23.92177 12.79427,-32.09343 7.76691,-7.76791 17.88075,-12.4273 31.91058,-14.70101 7.06245,-1.14456 23.96784,-1.95648 28.03564,-1.34648 l 2.92254,0.43827 0.41025,12.61515 c 0.22563,6.93834 0.60055,19.16716 0.83314,27.17516 l 0.42289,14.56 h 9.74769 9.74768 l 5.59327,28.32 c 4.94787,25.05212 7.33259,39.27424 7.35095,43.84 l 0.006,1.44 h -15.04 -15.04 l -0.0298,2.08 c -0.0164,1.144 0.91369,35.416 2.06688,76.16 l 2.0967,74.08 H 639.47787 922.182 l 0.30567,-2.08 c 0.26093,-1.7758 4.32403,-143.51394 4.25632,-148.48 l -0.024,-1.76 -123.04,0.004 -123.04,0.004 -1.50573,2.21112 c -1.97081,2.89416 -7.12134,5.46198 -10.9399,5.45417 -1.84736,-0.004 -7.10688,-1.40967 -14.36557,-3.84 L 642.3776,405.12 H 599.98804 557.5985 l -0.32841,-3.36 c -0.18062,-1.848 -1.20941,-10.416 -2.28619,-19.04 -1.78344,-14.28374 -3.3039,-35.84391 -3.3039,-46.84943 v -4.34843 l 188.64,-0.16107 188.64,-0.16107 0.42957,-13.12 c 0.23629,-7.216 0.62963,-19.56723 0.87411,-27.44717 l 0.44448,-14.32717 13.84595,0.37421 c 10.14291,0.27413 15.47194,0.71406 19.92589,1.64496 27.20512,5.686 40.4293,20.21377 42.0042,46.14486 l 0.4178,6.87767 6.789,0.3561 c 7.9116,0.41499 12.8785,1.90997 18.5721,5.58995 22.3738,14.46083 22.899,46.70879 0.9994,61.35615 -6.4457,4.31112 -11.2573,5.85096 -19.6581,6.29108 l -6.8757,0.36021 -0.1643,229.50958 c -0.1609,224.63373 -0.1905,229.57754 -1.3941,232.70957 -1.6553,4.30765 -7.90265,10.55501 -12.2103,12.2103 -3.14125,1.20711 -9.58362,1.23117 -351.04,1.31104 -191.312,0.0448 -349.28289,-0.13145 -351.04641,-0.39142 z M 590.46841,541.61508 c -1.87286,-1.87287 2.48632,-3.14682 12.41159,-3.62726 4.752,-0.23002 10.872,-0.59679 13.6,-0.81504 l 4.96,-0.39681 v 1.69201 c 0,1.41891 -0.28408,1.69219 -1.76,1.69308 -2.33919,10e-4 -22.08214,1.18825 -25.85159,1.55406 -1.63437,0.1586 -3.14637,0.11358 -3.36,-0.10004 z m 20.43943,-35.50819 c 0.24815,-0.80679 0.50988,-1.53737 0.58163,-1.62352 0.21369,-0.25655 30.05613,-2.03111 30.28627,-1.80094 0.11636,0.11635 -0.86016,0.87395 -2.1701,1.68353 -1.97749,1.22215 -3.69392,1.55366 -10.11367,1.95331 -4.25258,0.26474 -10.27522,0.65531 -13.38364,0.86794 l -5.65166,0.38658 z M 641.6,473.94651 c -1.76,-0.3606 -7.736,-0.58561 -13.28,-0.50004 -5.82035,0.0898 -10.08,-0.0932 -10.08,-0.43309 0,-0.32378 -0.17481,-1.04425 -0.38847,-1.60103 -0.33462,-0.872 0.35299,-1.01648 4.96,-1.04215 l 5.34847,-0.0298 -2.96484,-1.54427 c -6.55986,-3.41676 -9.88294,-8.86623 -9.75439,-15.99611 0.0678,-3.76167 0.7591,-6.40647 4.31125,-16.49485 5.1165,-14.53127 5.34689,-14.99361 9.13073,-18.32429 3.63602,-3.20055 8.63667,-4.86624 12.75507,-4.24864 2.93197,0.43968 16.24109,4.73901 18.89594,6.10407 5.13965,2.64271 8.90912,9.22556 8.90298,15.54772 -0.006,4.02529 -8.05882,28.21038 -10.63277,31.9253 -3.67597,5.30539 -10.62298,7.98552 -17.20397,6.6372 z m 319.36,-222.9651 c -5.632,-1.6606 -11.1079,-3.33203 -12.16864,-3.71428 -2.95693,-1.06556 -5.82342,-3.79089 -7.38912,-7.02511 -1.2023,-2.48371 -1.36435,-3.63045 -1.06746,-7.55595 l 0.35002,-4.62784 -15.4624,-4.36195 c -8.50432,-2.39907 -15.7127,-4.39217 -16.01862,-4.42911 -0.30592,-0.0369 -1.08928,1.78249 -1.7408,4.0432 -0.65152,2.2607 -1.50996,4.31145 -1.90765,4.55723 -0.3977,0.24578 -6.98451,1.82662 -14.63744,3.51298 l -13.91437,3.0661 -14.34176,-3.99475 c -17.32858,-4.82669 -58.28845,-16.43381 -77.86835,-22.06614 l -14.24659,-4.09817 -10.36167,-10.06027 -10.36166,-10.06028 -0.0582,-7.76353 c -0.0715,-9.51158 -1.33933,-13.329 -6.18925,-18.63553 -4.0153,-4.39342 -10.0967,-7.49481 -18.45594,-9.41216 -8.1038,-1.85876 -27.38092,-2.02839 -38.14963,-0.3357 -12.81881,2.01495 -33.57101,7.74505 -43.5664,12.02959 l -2.8471,1.2204 0.44505,-1.43507 c 1.89056,-6.09647 7.99002,-15.32342 14.30944,-21.64657 13.13901,-13.14677 32.15764,-21.28109 59.24864,-25.34082 6.23783,-0.93476 11.4658,-1.13908 27.84,-1.08802 11.088,0.0346 21.6,0.32576 23.36,0.64706 2.79911,0.511 5.03162,0.1705 17.82106,-2.71807 l 14.62106,-3.30226 53.28236,15.12681 53.28231,15.1268 10.71846,10.34348 10.71847,10.34347 -1.06458,3.66184 c -0.58547,2.01402 -0.82931,3.86265 -0.54182,4.10808 0.49081,0.41904 30.77964,9.03289 31.64268,8.99889 0.22004,-0.009 0.55917,-0.80776 0.75367,-1.77576 0.99283,-4.94101 6.51949,-9.62059 12.03424,-10.18976 2.98157,-0.30772 5.31885,0.14831 15.32512,2.99017 15.44345,4.38607 17.29507,5.35444 19.88117,10.39754 2.6559,5.17927 2.5996,5.49956 -6.78754,38.55723 -4.79706,16.89335 -9.35302,31.85656 -10.12429,33.25158 -0.77133,1.39502 -2.64454,3.40851 -4.16269,4.47442 -2.38214,1.6725 -3.39052,1.95593 -7.36,2.06877 -3.84793,0.10939 -6.27321,-0.36269 -14.83968,-2.88854 z"
         id="path5891" />
      <path
         style="fill:#60442a;stroke-width:0.63999999"
         d="M 639.84136,732.64794 639.68273,584 639.52001,732.32454 639.35728,880.64909 463.51864,880.48454 287.68,880.32 l -3.39427,-1.88038 c -3.85508,-2.13562 -7.07459,-5.43642 -9.21801,-9.45076 L 273.6,866.24 l -0.32,-230.4 -0.32,-230.4 -6.72,-0.4152 c -11.52505,-0.71208 -18.95962,-4.05724 -26.32948,-11.84685 -6.41011,-6.7752 -9.75007,-15.29048 -9.75007,-24.85795 0,-9.56747 3.33996,-18.08275 9.75007,-24.85795 7.36986,-7.78961 14.80443,-11.13477 26.32948,-11.84685 l 6.72,-0.4152 0.39082,-7.68 c 0.21495,-4.224 0.88821,-9.54708 1.49615,-11.82906 4.56154,-17.12259 17.30498,-28.0545 38.11303,-32.69511 7.0332,-1.56855 24.53584,-2.84783 30.78381,-2.25002 l 4.8638,0.46537 0.41921,13.87441 c 0.23057,7.63093 0.6052,19.85041 0.83251,27.15441 l 0.41329,13.28 h 9.74869 9.74868 l 5.4842,28 c 4.53805,23.16933 7.46581,40.74863 7.46581,44.82725 0,0.58174 -3.71752,0.77275 -15.04,0.77275 h -15.04 l 0.007,5.92 c 0.004,3.256 0.8647,34.864 1.91295,70.24 1.04825,35.376 1.90909,66.984 1.91296,70.24 l 0.007,5.92 h 283.05311 283.05313 l 2.0967,-74.08 c 1.15316,-40.744 2.08327,-75.016 2.06688,-76.16 l -0.0298,-2.08 -123.04,0.004 -123.04,0.004 -1.50573,2.21112 c -1.88518,2.76823 -7.13043,5.45992 -10.63993,5.45992 -1.49306,0 -7.53799,-1.64694 -14.09434,-3.84 l -11.48,-3.84 h -42.40781 -42.40781 l -0.31978,-1.44 c -0.50911,-2.29258 -4.08116,-32.09821 -4.77462,-39.84 -0.34682,-3.872 -0.82873,-12.728 -1.0709,-19.68 l -0.4403,-12.64 H 740.38938 929.28 v -4 c -0.007,-14.44954 1.51258,-50.14127 2.1543,-50.5988 1.21959,-0.86959 25.16935,-0.0132 31.44762,1.12452 7.37389,1.33626 17.15776,4.6757 21.85216,7.45863 2.0185,1.19661 5.70406,4.0884 8.19014,6.4262 8.34768,7.84976 12.06378,16.51875 13.33358,31.10468 l 0.7386,8.48477 h 4.8804 c 5.804,0 13.4644,1.82444 18.08,4.30602 5.1283,2.75722 12.091,9.73476 14.7148,14.74608 3.3258,6.3521 4.5299,11.06958 4.5299,17.7479 0,12.7386 -6.2067,24.00803 -17.1534,31.14531 -5.2966,3.4534 -10.8992,5.09306 -18.7609,5.49057 l -6.5548,0.33144 -0.1652,229.51634 -0.1653,229.51634 -1.8093,3.91514 c -2.2524,4.87392 -6.00214,8.60377 -10.99068,10.93241 l -3.84,1.79245 -174.88,0.16794 -174.88,0.16793 -0.15864,-148.64793 z M 634.24,471.76804 c -4.048,-1.33878 -8.55306,-3.04833 -10.01123,-3.79902 -5.8375,-3.00518 -9.77385,-10.40158 -8.92823,-16.77613 0.40552,-3.05699 7.87081,-25.33402 9.62925,-28.73446 1.38858,-2.68524 6.29762,-6.76022 9.18659,-7.62578 4.60176,-1.37872 8.9624,-0.92101 17.02212,1.78668 9.26009,3.11099 12.59366,5.00608 14.97958,8.51568 4.6665,6.86434 4.52467,10.06007 -1.18547,26.70499 -4.76359,13.88575 -6.32602,16.87939 -10.10451,19.36038 -5.8288,3.82723 -10.35495,3.95203 -20.5881,0.56766 z m 16.64,-27.3036 c 0,-1.3133 -0.7895,-1.74168 -7.0617,-3.83167 -7.42595,-2.47443 -9.16295,-2.51502 -8.82319,-0.20617 0.17006,1.15562 1.4017,1.79292 7.24489,3.7488 3.872,1.29606 7.4,2.22399 7.84,2.06207 0.44,-0.16193 0.8,-0.95979 0.8,-1.77303 z m 2.34758,-5.79407 c 0.60397,-1.57379 -0.90899,-2.52055 -7.46918,-4.67401 -6.89597,-2.2637 -8.19917,-2.41175 -8.74347,-0.99334 -0.59497,1.55046 0.64256,2.35291 7.01201,4.54672 6.72692,2.31695 8.65165,2.55137 9.20064,1.12063 z m 1.81242,-7.26225 c 0,-1.38434 -0.69613,-1.76738 -7.12045,-3.91816 -7.15558,-2.39556 -8.877,-2.43896 -8.4601,-0.21327 0.16665,0.88967 1.97633,1.81968 6.94298,3.56811 3.69466,1.30064 7.14957,2.30469 7.67757,2.23123 0.54925,-0.0764 0.96,-0.79007 0.96,-1.66791 z m 2.23322,-5.47997 c 1.46489,-1.76507 0.12742,-2.74213 -7.00858,-5.11995 -7.47085,-2.48938 -9.20966,-2.53282 -8.8695,-0.2216 0.16953,1.15216 1.4192,1.80633 7.24486,3.79254 8.37197,2.85434 7.65645,2.72595 8.63322,1.54901 z M 960.75955,250.83969 c -6.09421,-1.74621 -12.1975,-3.74484 -13.56288,-4.4414 -4.79027,-2.44382 -7.44128,-7.86135 -6.85645,-14.0116 0.18759,-1.97268 0.53895,-4.16269 0.7808,-4.86669 0.30234,-0.88003 0.25255,-1.0195 -0.15923,-0.44633 -0.47577,0.66225 -3.61363,-0.0219 -15.26035,-3.32718 -8.06381,-2.28847 -15.22643,-4.24762 -15.91693,-4.35367 -1.04665,-0.16075 -1.44249,0.49074 -2.37945,3.9167 -0.61818,2.26023 -1.41037,4.28656 -1.76052,4.50297 -0.3502,0.2164 -6.96038,1.79875 -14.68934,3.51632 l -14.05274,3.12286 -13.97126,-3.92915 c -28.50387,-8.01622 -64.31827,-18.173 -78.25158,-22.19177 l -14.36045,-4.14196 -10.27584,-10.09439 c -5.65171,-5.55192 -10.37312,-10.46744 -10.4921,-10.92337 -0.11891,-0.45594 0.0474,-1.60794 0.36941,-2.56 0.85453,-2.52569 -0.13178,-11.39115 -1.74099,-15.64889 -2.67795,-7.08564 -9.45792,-12.73338 -18.57965,-15.47694 -20.00192,-6.016 -54.34042,-2.11977 -83.55955,9.4811 -2.97024,1.17927 -5.40045,1.9685 -5.40045,1.75383 0,-0.21467 1.29792,-3.00551 2.88422,-6.20186 13.32954,-26.85861 45.05709,-41.70228 91.83578,-42.96518 14.3991,-0.38873 32.5943,0.61739 33.35251,1.84427 0.25216,0.40799 0.50483,0.42728 0.64999,0.0496 0.24569,-0.63919 26.76755,-6.74759 29.0375,-6.68779 0.704,0.0186 24.9463,6.75307 53.87174,14.96561 l 52.59175,14.93189 10.61165,10.44145 10.61164,10.44145 -1.02739,3.53419 c -0.56505,1.94381 -0.78259,3.74873 -0.48339,4.01094 0.60538,0.53055 30.1856,8.99528 31.43418,8.99528 0.43443,0 0.78982,-0.44347 0.78982,-0.9855 0,-1.84113 2.51437,-5.92368 4.81741,-7.82208 2.49926,-2.06007 6.03353,-3.35242 9.16813,-3.35242 2.55564,0 24.61849,6.16243 27.7374,7.74738 4.27556,2.17278 7.12146,6.99553 7.13106,12.08428 0.01,4.30799 -16.10014,61.53629 -18.48651,65.67755 -2.46419,4.2764 -6.8192,6.67004 -12.04096,6.61809 -1.9353,-0.0193 -7.84218,-1.33803 -14.36698,-3.20761 z"
         id="path5889" />
      <path
         style="fill:#5c3a2a;stroke-width:0.63999999"
         d="M 640,719.36 V 557.44 h 141.44 141.44 l 0.007,-5.92 c 0.006,-3.256 0.8647,-34.864 1.91296,-70.24 1.04826,-35.376 1.90906,-66.984 1.91296,-70.24 l 0.007,-5.92 H 803.84205 680.9641 l -3.04205,3.1361 c -3.08672,3.18214 -6.10439,4.53932 -10.08205,4.53437 -1.056,-0.001 -7.07302,-1.72771 -13.3712,-3.83643 L 643.0176,405.12 h -42.45662 -42.4566 l -0.30019,-1.44 c -0.16512,-0.792 -1.31396,-10.08 -2.55299,-20.64 -1.80632,-15.39491 -3.59962,-40.51667 -3.57492,-50.08 l 0.004,-1.44 h 188.70368 188.70368 l 0.41331,-13.28 c 0.22733,-7.304 0.60224,-19.53289 0.83322,-27.17532 l 0.41984,-13.8953 2.92089,-0.43801 c 7.68564,-1.15254 28.7753,0.70121 37.82036,3.32437 17.12486,4.96637 28.96204,16.19814 32.99144,31.30426 0.5633,2.112 1.3499,7.512 1.7478,12 l 0.7236,8.16 4.5211,0.0111 c 10.657,0.0262 19.6421,3.73392 26.9406,11.11717 7.3089,7.3939 10.7151,15.55439 10.7151,25.67172 0,10.11732 -3.4062,18.27781 -10.7151,25.67171 -7.3274,7.41245 -16.2799,11.09134 -27.0534,11.11718 l -4.6339,0.0111 -0.1661,229.6 -0.1661,229.6 -1.8467,3.9984 c -3.125,6.76627 -8.87761,11.05741 -16.47601,12.29037 -2.73395,0.44358 -60.74797,0.66317 -176.07731,0.66637 l -172,0.005 z m -5.76,-247.59196 c -11.80709,-3.9049 -14.65767,-5.8476 -17.2791,-11.77589 -2.41245,-5.45564 -1.96167,-9.07891 2.94294,-23.65479 4.76682,-14.1664 6.28162,-16.82184 11.40188,-19.98745 2.45596,-1.5184 4.00632,-1.96864 7.4486,-2.16315 3.77976,-0.21358 5.39934,0.10504 12.41042,2.44149 9.73804,3.24523 13.33792,5.53215 15.88192,10.08947 3.35897,6.01742 3.18412,8.7695 -1.45383,22.88265 -4.52454,13.76799 -6.01651,17.05701 -9.05568,19.96342 -5.55161,5.30911 -11.216,5.86907 -22.29715,2.20425 z m 16.64,-27.3036 c 0,-1.3133 -0.7895,-1.74168 -7.0617,-3.83167 -7.42595,-2.47443 -9.16295,-2.51502 -8.82319,-0.20617 0.17006,1.15562 1.4017,1.79292 7.24489,3.7488 3.872,1.29606 7.4,2.22399 7.84,2.06207 0.44,-0.16193 0.8,-0.95979 0.8,-1.77303 z m 2.34758,-5.79407 c 0.60397,-1.57379 -0.90899,-2.52055 -7.46918,-4.67401 -6.89597,-2.2637 -8.19917,-2.41175 -8.74347,-0.99334 -0.59497,1.55046 0.64256,2.35291 7.01201,4.54672 6.72692,2.31695 8.65165,2.55137 9.20064,1.12063 z m 1.81242,-7.26225 c 0,-1.38434 -0.69613,-1.76738 -7.12045,-3.91816 -7.15558,-2.39556 -8.877,-2.43896 -8.4601,-0.21327 0.16665,0.88967 1.97633,1.81968 6.94298,3.56811 3.69466,1.30064 7.14957,2.30469 7.67757,2.23123 0.54925,-0.0764 0.96,-0.79007 0.96,-1.66791 z m 2.23322,-5.47997 c 1.46489,-1.76507 0.12742,-2.74213 -7.00858,-5.11995 -7.47085,-2.48938 -9.20966,-2.53282 -8.8695,-0.2216 0.16953,1.15216 1.4192,1.80633 7.24486,3.79254 8.37197,2.85434 7.65645,2.72595 8.63322,1.54901 z M 258.8273,404.17121 c -6.40198,-1.39305 -12.80127,-5.03494 -17.88676,-10.17949 -7.309,-7.39391 -10.71511,-15.5544 -10.71511,-25.67172 0,-10.14435 3.41759,-18.3178 10.71511,-25.6261 7.48641,-7.49746 16.30903,-11.13704 27.05946,-11.16279 l 4.64,-0.0111 v 36.8 36.8 l -4.96,-0.0509 c -2.728,-0.028 -6.71171,-0.43204 -8.8527,-0.89791 z M 352.62547,402.4 c -0.008,-1.496 -0.43268,-15.968 -0.94374,-32.16 -0.51105,-16.192 -0.93651,-31.5357 -0.94545,-34.09711 l -0.0163,-4.65711 9.41007,0.17711 9.41006,0.17711 5.28035,26.24 c 4.17802,20.76212 7.88823,42.63364 7.89829,46.56 6.4e-4,0.264 -6.76677,0.48 -15.03877,0.48 h -15.04 l -0.0145,-2.72 z M 963.52,251.55466 c -4.576,-1.31913 -9.99814,-2.88907 -12.04922,-3.48873 -4.60819,-1.34727 -8.87417,-5.07034 -10.40614,-9.08176 -1.05178,-2.75415 -1.02086,-6.69975 0.0874,-11.14417 0.26573,-1.06574 0.20135,-1.32289 -0.19276,-0.77011 -0.90311,1.26649 -30.84935,-7.35742 -31.48141,-9.06599 -0.32032,-0.86597 -0.87795,0.37764 -1.93786,4.32153 -1.1936,4.44149 -1.75449,5.6004 -2.83405,5.85582 -0.74028,0.17513 -7.24896,1.62805 -14.46361,3.22869 l -13.1177,2.91026 -3.8423,-1.0663 C 850.80384,227.01583 774.12141,205.19078 772.16,204.47287 c -1.83859,-0.67295 -5.42483,-3.80616 -12.72589,-11.11821 -9.88665,-9.9016 -10.14803,-10.23225 -9.51789,-12.04002 0.6898,-1.97873 0.0668,-11.13271 -0.99449,-14.61286 -2.48538,-8.15005 -8.77447,-13.94585 -18.32487,-16.88761 -20.5936,-6.34333 -50.83116,-3.27701 -82.4622,8.36228 -3.8322,1.41014 -7.08096,2.4506 -7.2194,2.31215 -0.13843,-0.13846 1.03712,-2.83369 2.61242,-5.98941 14.61216,-29.27193 51.59827,-44.48178 104.31232,-42.89652 7.744,0.23288 15.60653,0.59959 17.47226,0.8149 3.39129,0.39137 3.39219,0.39209 3.02022,2.38696 l -0.37203,1.99547 0.89849,-1.96026 c 0.88717,-1.93534 1.07239,-1.99854 14.57984,-4.97437 7.52468,-1.65777 14.25722,-2.99875 14.96122,-2.97996 0.704,0.0188 25.00966,6.76614 54.01261,14.99412 l 52.73261,14.95995 10.39827,10.38397 10.39827,10.38397 -1.21088,4.23425 c -1.18957,4.15969 -1.54227,6.48457 -0.68589,4.52081 0.37357,-0.85661 2.60467,-0.38302 15.79501,3.35276 8.448,2.39266 15.68877,4.35355 16.09062,4.35752 0.40186,0.004 0.9234,-0.78476 1.15898,-1.75276 0.72909,-2.9959 3.3936,-6.41415 6.35053,-8.14701 4.97664,-2.91653 7.49299,-2.77088 21.50739,1.24487 7.49888,2.14876 13.36518,4.19994 14.72,5.14693 4.61278,3.22425 6.90728,9.01632 5.70358,14.39758 -0.5017,2.24228 -15.3576,55.08107 -16.97859,60.38838 -0.62809,2.05641 -4.92397,6.31987 -7.59251,7.53523 -3.73126,1.69934 -7.87405,1.38017 -17.28,-1.33132 z M 942.63002,222.72 c 0,-0.60511 -0.20333,-0.48681 -0.55002,0.32 -0.30253,0.704 -0.55002,1.712 -0.55002,2.24 0,0.60511 0.20333,0.48681 0.55002,-0.32 0.30253,-0.704 0.55002,-1.712 0.55002,-2.24 z m 1.28,-4.48 c 0,-0.60511 -0.20333,-0.48681 -0.55002,0.32 -0.30253,0.704 -0.55002,1.712 -0.55002,2.24 0,0.60511 0.20333,0.48681 0.55002,-0.32 0.30253,-0.704 0.55002,-1.712 0.55002,-2.24 z m 1.28,-4.48 c 0,-0.60511 -0.20333,-0.48681 -0.55002,0.32 -0.30253,0.704 -0.55002,1.712 -0.55002,2.24 0,0.60511 0.20333,0.48681 0.55002,-0.32 0.30253,-0.704 0.55002,-1.712 0.55002,-2.24 z m -34.56,-0.64 c 0,-0.60511 -0.20333,-0.48681 -0.55002,0.32 -0.30253,0.704 -0.55002,1.712 -0.55002,2.24 0,0.60511 0.20333,0.48681 0.55002,-0.32 0.30253,-0.704 0.55002,-1.712 0.55002,-2.24 z m 35.84,-3.84 c 0,-0.60511 -0.20333,-0.48681 -0.55002,0.32 -0.30253,0.704 -0.55002,1.712 -0.55002,2.24 0,0.60511 0.20333,0.48681 0.55002,-0.32 0.30253,-0.704 0.55002,-1.712 0.55002,-2.24 z m 1.28,-4.48 c 0,-0.60511 -0.20333,-0.48681 -0.55002,0.32 -0.30253,0.704 -0.55002,1.712 -0.55002,2.24 0,0.60511 0.20333,0.48681 0.55002,-0.32 0.30253,-0.704 0.55002,-1.712 0.55002,-2.24 z m -35.31284,1.16 c -0.20428,-0.51055 -0.35596,-0.3589 -0.38668,0.38667 -0.0275,0.67466 0.12352,1.05266 0.33619,0.84 0.21267,-0.21267 0.23539,-0.76467 0.0506,-1.22667 z m 36.59284,-5.64 c 0,-0.60511 -0.20333,-0.48681 -0.55002,0.32 -0.30253,0.704 -0.55002,1.712 -0.55002,2.24 0,0.60511 0.20333,0.48681 0.55002,-0.32 0.30253,-0.704 0.55002,-1.712 0.55002,-2.24 z m -35.31284,1.16 c -0.20428,-0.51055 -0.35596,-0.3589 -0.38668,0.38667 -0.0275,0.67466 0.12352,1.05266 0.33619,0.84 0.21267,-0.21267 0.23539,-0.76467 0.0506,-1.22667 z m 36.59284,-5.64 c 0,-0.60511 -0.20333,-0.48681 -0.55002,0.32 -0.30253,0.704 -0.55002,1.712 -0.55002,2.24 0,0.60511 0.20333,0.48681 0.55002,-0.32 0.30253,-0.704 0.55002,-1.712 0.55002,-2.24 z M 914.99718,197 c -0.20428,-0.51055 -0.35596,-0.3589 -0.38668,0.38667 -0.0275,0.67466 0.12352,1.05266 0.33619,0.84 0.21267,-0.21267 0.23539,-0.76467 0.0506,-1.22667 z m 36.59284,-5.64 c 0,-0.60511 -0.20333,-0.48681 -0.55002,0.32 -0.30253,0.704 -0.55002,1.712 -0.55002,2.24 0,0.60511 0.20333,0.48681 0.55002,-0.32 0.30253,-0.704 0.55002,-1.712 0.55002,-2.24 z m -35.31284,1.16 c -0.20428,-0.51055 -0.35596,-0.3589 -0.38668,0.38667 -0.0275,0.67466 0.12352,1.05266 0.33619,0.84 0.21267,-0.21267 0.23539,-0.76467 0.0506,-1.22667 z m 35.84,-3.84 c -0.20428,-0.51055 -0.35596,-0.3589 -0.38668,0.38667 -0.0275,0.67466 0.12352,1.05266 0.33619,0.84 0.21267,-0.21267 0.23539,-0.76467 0.0506,-1.22667 z m -34.56,-0.64 c -0.20428,-0.51055 -0.35596,-0.3589 -0.38668,0.38667 -0.0275,0.67466 0.12352,1.05266 0.33619,0.84 0.21267,-0.21267 0.23539,-0.76467 0.0506,-1.22667 z m 35.84,-3.84 c -0.20428,-0.51055 -0.35596,-0.3589 -0.38668,0.38667 -0.0275,0.67466 0.12352,1.05266 0.33619,0.84 0.21267,-0.21267 0.23539,-0.76467 0.0506,-1.22667 z m -34.56,-0.64 c -0.20428,-0.51055 -0.35596,-0.3589 -0.38668,0.38667 -0.0275,0.67466 0.12352,1.05266 0.33619,0.84 0.21267,-0.21267 0.23539,-0.76467 0.0506,-1.22667 z m 35.84,-3.84 c -0.20428,-0.51055 -0.35596,-0.3589 -0.38668,0.38667 -0.0275,0.67466 0.12352,1.05266 0.33619,0.84 0.21267,-0.21267 0.23539,-0.76467 0.0506,-1.22667 z m -34.56,-0.64 c -0.20428,-0.51055 -0.35596,-0.3589 -0.38668,0.38667 -0.0275,0.67466 0.12352,1.05266 0.33619,0.84 0.21267,-0.21267 0.23539,-0.76467 0.0506,-1.22667 z m -168.20716,-5 c 0,-0.60511 -0.20333,-0.48681 -0.55002,0.32 -0.30253,0.704 -0.55002,1.712 -0.55002,2.24 0,0.60511 0.20333,0.48681 0.55002,-0.32 0.30253,-0.704 0.55002,-1.712 0.55002,-2.24 z m 204.04716,1.16 c -0.20428,-0.51055 -0.35596,-0.3589 -0.38668,0.38667 -0.0275,0.67466 0.12352,1.05266 0.33619,0.84 0.21267,-0.21267 0.23539,-0.76467 0.0506,-1.22667 z m -34.56,-0.64 c -0.20428,-0.51055 -0.35596,-0.3589 -0.38668,0.38667 -0.0275,0.67466 0.12352,1.05266 0.33619,0.84 0.21267,-0.21267 0.23539,-0.76467 0.0506,-1.22667 z m -168.20716,-5 c 0,-0.60511 -0.20333,-0.48681 -0.55002,0.32 -0.30253,0.704 -0.55002,1.712 -0.55002,2.24 0,0.60511 0.20333,0.48681 0.55002,-0.32 0.30253,-0.704 0.55002,-1.712 0.55002,-2.24 z m 169.48716,0.52 c -0.20428,-0.51055 -0.35596,-0.3589 -0.38668,0.38667 -0.0275,0.67466 0.12352,1.05266 0.33619,0.84 0.21267,-0.21267 0.23539,-0.76467 0.0506,-1.22667 z m -168.96,-3.2 c -0.20428,-0.51055 -0.35596,-0.3589 -0.38668,0.38667 -0.0275,0.67466 0.12352,1.05266 0.33619,0.84 0.21267,-0.21267 0.23539,-0.76467 0.0506,-1.22667 z m 1.28,-4.48 c -0.20428,-0.51055 -0.35596,-0.3589 -0.38668,0.38667 -0.0275,0.67466 0.12352,1.05266 0.33619,0.84 0.21267,-0.21267 0.23539,-0.76467 0.0506,-1.22667 z m 1.28,-4.48 c -0.20428,-0.51055 -0.35596,-0.3589 -0.38668,0.38667 -0.0275,0.67466 0.12352,1.05266 0.33619,0.84 0.21267,-0.21267 0.23539,-0.76467 0.0506,-1.22667 z m 1.28,-4.48 c -0.20428,-0.51055 -0.35596,-0.3589 -0.38668,0.38667 -0.0275,0.67466 0.12352,1.05266 0.33619,0.84 0.21267,-0.21267 0.23539,-0.76467 0.0506,-1.22667 z m 1.28,-4.48 c -0.20428,-0.51055 -0.35596,-0.3589 -0.38668,0.38667 -0.0275,0.67466 0.12352,1.05266 0.33619,0.84 0.21267,-0.21267 0.23539,-0.76467 0.0506,-1.22667 z m 1.28,-4.48 c -0.20428,-0.51055 -0.35596,-0.3589 -0.38668,0.38667 -0.0275,0.67466 0.12352,1.05266 0.33619,0.84 0.21267,-0.21267 0.23539,-0.76467 0.0506,-1.22667 z m 1.28,-4.48 c -0.20428,-0.51055 -0.35596,-0.3589 -0.38668,0.38667 -0.0275,0.67466 0.12352,1.05266 0.33619,0.84 0.21267,-0.21267 0.23539,-0.76467 0.0506,-1.22667 z m 1.28,-4.48 c -0.20428,-0.51055 -0.35596,-0.3589 -0.38668,0.38667 -0.0275,0.67466 0.12352,1.05266 0.33619,0.84 0.21267,-0.21267 0.23539,-0.76467 0.0506,-1.22667 z m 1.28,-4.48 c -0.20428,-0.51055 -0.35596,-0.3589 -0.38668,0.38667 -0.0275,0.67466 0.12352,1.05266 0.33619,0.84 0.21267,-0.21267 0.23539,-0.76467 0.0506,-1.22667 z m 1.28,-4.48 c -0.20428,-0.51055 -0.35596,-0.3589 -0.38668,0.38667 -0.0275,0.67466 0.12352,1.05266 0.33619,0.84 0.21267,-0.21267 0.23539,-0.76467 0.0506,-1.22667 z m 1.28,-4.48 c -0.20428,-0.51055 -0.35596,-0.3589 -0.38668,0.38667 -0.0275,0.67466 0.12352,1.05266 0.33619,0.84 0.21267,-0.21267 0.23539,-0.76467 0.0506,-1.22667 z m 1.28,-4.48 c -0.20428,-0.51055 -0.35596,-0.3589 -0.38668,0.38667 -0.0275,0.67466 0.12352,1.05266 0.33619,0.84 0.21267,-0.21267 0.23539,-0.76467 0.0506,-1.22667 z"
         id="path5887" />
      <path
         style="fill:#3a2413;stroke-width:0.63999999"
         d="m 640,719.04 v -161.6 h 141.44 141.44 l -0.0109,-3.68 c -0.0173,-5.92162 5.08486,-186.74438 7.17408,-254.24 0.37587,-12.144 0.81466,-22.224 0.9751,-22.4 0.16039,-0.176 5.81095,-0.2936 12.55674,-0.26132 8.65293,0.0414 14.1392,0.39098 18.6288,1.18707 24.25491,4.30079 38.13228,15.98133 43.00128,36.19425 1.104,4.58283 1.1651,16.99042 1.3525,274.24 0.1371,188.16685 -0.01,270.77856 -0.4846,273.87757 -1.2371,8.06093 -6.10886,14.32691 -13.20281,16.98112 -3.46599,1.29677 -4.09018,1.30131 -178.17415,1.30131 h -174.696 v -161.6 z m -5.87937,-247.33569 c -9.26676,-3.11831 -12.02976,-4.50861 -14.30135,-7.19625 -5.64702,-6.6813 -5.54374,-11.73018 0.60236,-29.44582 4.90612,-14.14148 6.38214,-16.51353 12.02553,-19.32575 4.92227,-2.45287 8.97318,-2.2532 18.73779,0.92355 10.04179,3.26697 13.44781,5.48665 15.94918,10.39403 3.2825,6.43994 3.10688,8.61497 -1.87846,23.26434 -2.38106,6.99687 -4.74944,13.58559 -5.26298,14.64159 -2.58547,5.31644 -9.17619,9.28995 -15.3767,9.27057 -1.79315,-0.006 -6.04855,-1.02989 -10.49537,-2.52626 z m 16.75259,-25.93616 c 1.46489,-1.76507 0.12742,-2.74213 -7.00858,-5.11995 -7.51814,-2.50514 -9.20559,-2.53768 -8.86953,-0.17106 0.17142,1.20716 1.30263,1.82793 6.92489,3.80013 7.78157,2.72964 7.90771,2.75065 8.95322,1.49088 z m 2.44064,-7.76669 c 0.21888,-1.53433 0.37772,-1.44977 -8.25101,-4.39365 -6.4102,-2.187 -8.26285,-2.12183 -8.26285,0.29066 0,0.94199 1.38831,1.67247 6.56,3.45161 7.41498,2.55087 9.66182,2.69791 9.95386,0.65138 z M 655.36,432.32 c 1.33376,-1.60707 -0.216,-2.63289 -7.79078,-5.15692 -6.13652,-2.04476 -7.17549,-2.23112 -7.97591,-1.43067 -1.73625,1.73624 -0.24612,2.95559 6.38173,5.22208 7.47763,2.55708 8.29709,2.67631 9.38496,1.36551 z m 1.82298,-6.00649 c 0.47462,-0.30079 0.75955,-1.08838 0.63321,-1.7502 -0.27206,-1.4246 -10.39552,-5.48634 -13.97619,-5.60751 -1.98291,-0.0671 -2.24,0.10785 -2.24,1.5242 0,1.45541 0.6073,1.81302 6.72,3.95727 7.44947,2.61315 7.63738,2.65293 8.86298,1.87624 z M 663.36,411.84522 c -1.76,-0.4788 -6.8,-2.16938 -11.2,-3.75685 l -8,-2.8863 7.47834,-0.041 c 4.11308,-0.0226 8.27801,0.26302 9.25542,0.63463 1.26016,0.47909 2.15667,0.47268 3.08166,-0.0221 0.7945,-0.42489 4.30759,-0.62652 8.98458,-0.51566 l 7.68,0.18206 -2.88211,2.96632 c -4.14074,4.26173 -7.992,5.18159 -14.39789,3.43889 z M 924.83526,223.41981 c -8.2526,-2.38048 -15.09766,-4.60693 -15.2112,-4.94765 -0.22816,-0.68447 14.24333,-51.99287 14.83002,-52.57955 0.20166,-0.20167 7.3591,1.61584 15.90554,4.03888 l 15.53881,4.40555 -7.12249,24.99148 c -3.91738,13.74532 -7.32007,25.78348 -7.56141,26.75148 -0.24141,0.968 -0.64941,1.7393 -0.90675,1.71398 -0.25728,-0.0253 -7.21991,-1.99368 -15.47252,-4.37417 z M 749.91494,172.84336 c -0.88691,-12.9394 -8.74425,-20.8713 -24.2983,-24.52887 -8.09568,-1.90372 -29.17088,-2.04028 -39.85664,-0.25825 -9.96493,1.66181 -24.67802,5.52592 -35.52,9.32864 -5.104,1.79017 -9.33613,3.25492 -9.4048,3.25499 -0.58086,6.1e-4 3.8041,-8.39491 6.51821,-12.47987 15.08889,-22.7098 45.05574,-35.26126 87.36659,-36.593 10.59802,-0.33357 33.00403,0.58371 33.80422,1.38391 0.11399,0.11394 -3.94688,14.79789 -9.02412,32.631 l -9.2313,32.42384 z"
         id="path5885" />
      <path
         style="fill:#05090f;stroke-width:0.63999999"
         d="m 633.6986,471.42637 c -9.3288,-3.1208 -12.62468,-5.01272 -14.97898,-8.59828 -4.2772,-6.51412 -4.12354,-9.97536 1.14449,-25.78043 4.54617,-13.63933 6.60742,-17.61529 10.3439,-19.95236 6.21267,-3.88587 9.70987,-3.9048 21.30476,-0.11531 7.67277,2.50763 9.3063,3.28933 12.07411,5.77784 3.78592,3.40388 5.51949,7.33201 5.49094,12.44217 -0.0275,4.90765 -7.88153,28.39608 -10.76563,32.19553 -2.70502,3.56359 -7.7687,6.25523 -12.43737,6.61114 -3.05191,0.23266 -5.00455,-0.18112 -12.17622,-2.5803 z m 17.69231,-26.36238 c 0.27219,-1.90542 -0.82387,-2.58302 -8.19225,-5.06445 -7.10601,-2.39306 -9.23478,-2.26689 -8.8375,0.52376 0.16342,1.14785 1.39615,1.81919 6.91884,3.76798 7.49786,2.64576 9.81792,2.82306 10.11091,0.77271 z m 1.96301,-5.84747 c 0.37485,-0.66984 0.39014,-1.52836 0.039,-2.18472 -0.6889,-1.28729 -14.25702,-5.96828 -15.69733,-5.41558 -0.63202,0.24253 -0.90897,1.00409 -0.7783,2.14014 0.18644,1.62084 0.74695,1.95449 6.92286,4.12091 7.73933,2.71483 8.67072,2.84594 9.51392,1.33925 z m 2.52493,-8.05982 c -0.16359,-1.14901 -1.39059,-1.81474 -6.91885,-3.75397 -7.54438,-2.64645 -9.45983,-2.91268 -10.04194,-1.39574 -0.74665,1.94574 0.82953,3.02797 7.84732,5.38814 7.49248,2.5198 9.49868,2.46731 9.11347,-0.23843 z M 657.6,424.69689 c 0,-1.80636 -0.22362,-1.93798 -7.34138,-4.32087 -7.09644,-2.3758 -7.38016,-2.41896 -8.50489,-1.29419 -1.99546,1.99546 -0.73709,3.11971 6.14131,5.4866 7.92902,2.72842 9.70496,2.75193 9.70496,0.12846 z m 6.4,-12.83982 c -1.76,-0.50319 -6.512,-2.05017 -10.56,-3.43774 l -7.36,-2.52285 16.80486,-0.0353 c 15.66151,-0.0329 16.76506,0.0392 16.21927,1.05891 -2.31571,4.32695 -9.27795,6.60265 -15.10413,4.93695 z"
         id="path5883" />
    </g>
    <text
       id="text5915"
       y="1081.127"
       x="315.26044"
       style="font-style:normal;font-weight:normal;font-size:40px;line-height:1.25;font-family:sans-serif;letter-spacing:0px;word-spacing:0px;fill:#60442a;fill-opacity:1;stroke:none"
       xml:space="preserve"><tspan
         style="font-style:normal;font-variant:normal;font-weight:normal;font-stretch:normal;font-size:120px;font-family:Laksaman;-inkscape-font-specification:Laksaman;fill:#60442a;fill-opacity:1"
         y="1081.127"
         x="315.26044"
         id="tspan5913">mpltoolbox</tspan></text>
  </g>
</svg>
